<?xml version="1.0" encoding="utf-8"?>
<!-- Generator: Adobe Illustrator 22.0.1, SVG Export Plug-In . SVG Version: 6.00 Build 0)  -->
<svg version="1.1" id="圖層_1" xmlns="http://www.w3.org/2000/svg" xmlns:xlink="http://www.w3.org/1999/xlink" x="0px" y="0px"
	 viewBox="0 0 607.3 228.2" style="enable-background:new 0 0 607.3 228.2;" xml:space="preserve">
<style type="text/css">
	.st0{clip-path:url(#SVGID_2_);}
	.st1{clip-path:url(#SVGID_4_);fill:#040000;}
	.st2{clip-path:url(#SVGID_6_);}
	.st3{clip-path:url(#SVGID_8_);fill:#040000;}
	.st4{clip-path:url(#SVGID_10_);}
	.st5{clip-path:url(#SVGID_12_);fill:#040000;}
</style>
<g>
	<g>
		<g>
			<g>
				<g>
					<g id="圖稿_12_1_">
						<defs>
							<rect id="SVGID_1_" x="3" y="4" width="116.4" height="213"/>
						</defs>
						<clipPath id="SVGID_2_">
							<use xlink:href="#SVGID_1_"  style="overflow:visible;"/>
						</clipPath>
						<g class="st0">
							<g>
								<defs>
									<rect id="SVGID_3_" x="3" y="4" width="116.4" height="213"/>
								</defs>
								<clipPath id="SVGID_4_">
									<use xlink:href="#SVGID_3_"  style="overflow:visible;"/>
								</clipPath>
								<path class="st1" d="M34.2,88.2c-0.2,0.1-0.5,0.1-0.7,0.2c-5,2.2-9.2,5.8-10.9,8.4c-6.8,10.6-12,13.1-15.4,12.1
									c-2.3-0.7-4.5-5.3-3.5-22.4c0.1-1.3,0.9-2.5,2.1-3c2.9-1.2,6.9-2.8,11.8-4.1c19-5.3,31.7-2.8,33.7-8.3
									c1.2-3.2-1.5-8.6-2.9-11.1c-0.5-1-1.4-1.6-2.4-1.8c-3.3-0.6-11.2-1.8-18.8-0.5c-11,1.8-15.5,2.2-18.7-1.2
									c-2.6-2.8-5-8.3-5.4-12.2c-0.2-2.2,1.6-4,3.8-3.8c8.4,0.9,35,3.6,42.4,0.1c8.7-4.2,8.3-7.9,8.3-7.9s1.5-3.4,1.7-11.8
									c0-0.6-0.1-1.2-0.5-1.8c-0.9-1.5-2.4-5.3,2.1-8.9l5.8-4.6c0,0,4.6-3.7,10,0c4.6,3.2,4.4,9.1,4.2,10.8c0,0.4,0,0.7,0.1,1.1
									c0.4,1.9,2,7.8,6.5,6.1c7.3-2.8,11.6,4.2,11.6,4.2s2.9,4.6-10.4,14.6C74.9,52.6,69.3,57.5,70,59.7c0.4,1.2,3.2,2.3,14.5,0.9
									c0.6-0.1,1.1-0.3,1.6-0.6c12.4-8.7,25.4-8.7,30.5-2.8c3,3.4,3.4,8.9,2.1,13.3c-2.2,7.4-8.7,9.9-18.7,16.2
									c-20.1,12.7-36.8,29.7-35.5,31.5c0.1,0.1,0.2,0.1,0.2,0.1c1.6,0.5,8,4.2,20.8,11.6c11.1,6.4,12.9,41.9-4.6,66.1
									C73,206.9,63,213.1,55.8,216.5c-1.7,0.8-3.8,0.1-4.6-1.6c-1-2-1.5-4.2-0.7-6c1.5-3.3,6.1-2.9,10.8-5.8
									c2-1.3,4.3-3.3,6.4-6.8c1.5-2.6-0.8-5.7-3.7-5.1c-1,0.2-2,0.4-3.1,0.7c0,0-16.6,2.9-24.1,0s-21.6-11.2-22-20
									c-0.3-3.5-0.8-13.6,5.9-20.9c9.8-10.6,28.2-7.8,39-1.2c5.7,3.5,9.5,8.1,12,12.1c1.7,2.7,5.9,1.8,6.3-1.4
									c0.5-3.8,0.3-8.3-1.3-13.2c-3.8-11.2-13.1-16.5-17.2-18.4c-1.1-0.5-2.4-0.4-3.4,0.3c-1.5,1-3.7,2.2-6.5,2.7
									c-5.7,1-12.6-1.1-12.9-3.7c-0.3-2.6,5.6-3.4,12.5-10.8c2.8-3.1,6.7-8.2,5.7-9.3c-2.2-2.4-33.6,23.8-33.9,7.7
									C20.6,95.4,43.5,105,43.9,94.6c0.1-1.6,0.2-2.8,0.4-3.9c0.4-2.4-1.8-4.4-4.1-3.9L34.2,88.2z M30.1,158.7
									c0,0-8.7,20.8,18.3,22.9c16.2,1.2,20.4,1.2,7.5-18.7C47.2,149.5,35.1,148.3,30.1,158.7 M68.7,67.2c0,0-0.8,14.1,3.7,16.2
									c4.5,2,13.8,0.5,34.1-14.6c4.2-3.1,6-10.8-1.9-10.5c-3,0.1-7.8,3.6-13.9,5.9c-1.4,0.5-5.1,1.5-10,2.9
									C77.4,68.2,68.7,67.2,68.7,67.2"/>
							</g>
						</g>
					</g>
					<g>
						<g>
							<g id="圖稿_16_1_">
								<defs>
									<rect id="SVGID_5_" x="105" y="47" width="129.3" height="148.7"/>
								</defs>
								<clipPath id="SVGID_6_">
									<use xlink:href="#SVGID_5_"  style="overflow:visible;"/>
								</clipPath>
								<g class="st2">
									<g>
										<defs>
											<rect id="SVGID_7_" x="105" y="47" width="129.3" height="148.7"/>
										</defs>
										<clipPath id="SVGID_8_">
											<use xlink:href="#SVGID_7_"  style="overflow:visible;"/>
										</clipPath>
										<path class="st3" d="M207.6,121.2c1.1-1.4,1.6-3.1,1.7-4.8c0.1-2.7,0.2-7.9-0.7-10c-1.2-2.9,2.9-6.5,5.9-8.2
											c4.1-2.5,10,0.6,9.4,9.4c-0.1,1.5-1.1,3.2-2.9,8.8c-0.6,1.8-0.5,3.1,0,4.7c0.6,1.9,1.9,2.4,3.5,2.4c1.9,0,7.2-2.5,8.2,5.3
											c3.5,26.5,0.1,38-3.5,42.9c-6.6,9.2-18.2,20.2-21.1,22.9c-0.7,0.7-1.7,1.1-2.8,1.1c-1.7,0-4.4-0.7-7.9-4
											c-3.8-3.4-4.5-6.9-2.9-7.1c11.8-1.2,17.6-5.3,20.6-9.4c6.5-9.1,12.4-17.6,8.8-35.9c-3.1-16.2-8.9-11.2-12.2-6.6
											c-1.6,2.3-2.3,5.2-1.8,8c0.8,4.9,1.7,12.7-0.7,11.5c-3.1-1.5-9.7-0.4-11.4-0.1c-0.4,0.1-0.8,0.3-1.1,0.6
											c-0.9,0.8-1.6,2.8,4.3,6.6c8.2,5.3,6.5,10.6,5.9,15.9c-0.6,5.3-4.1,0.6-10.6,1.8s-5.9-4.7-7.6-7.1
											c-1.8-2.4-12.9-2.4-22.9,0s-9.4-15.9-10-27.7s4.7,2.4,21.2-22.9c15.7-24.1-1.2-23.6-2.8-23.5c-0.1,0-0.2,0-0.2,0
											c-1.8,0.3-23.5,4.3-25.2,22.9c-1.8,19.4-0.6,48.2,2.4,57.7c1.9,6.2,7.6,12.9,7.1,17.1c-0.6,4.1-20.5-8.7-21.2-12.4
											c-1-5.8-0.1-14.5,0.9-22.8c0.2-2-2.5-2.8-3.4-1l-6.9,11.5c-3.5,7.1-17.6-0.6-11.8-6.5c4.7-4.7,14-23.2,17.4-31.7
											c1-2.4,1.4-5,1.4-7.6c-0.1-4.1,0.2-8.5-0.5-10.7c-1.2-3.5-12.4,2.4-18.2,3.5s-6.5-6.5-10-10.6c-2.1-2.5,0.9-4.1,3.7-5
											c1.6-0.5,3.4-0.8,5.1-0.9c5.6-0.3,23.1-2,26-13.5c0.4-1.4,1.1-5,1.7-7.6c0.6-2.9,0.8-5.9,0.3-8.8c-0.5-3.4-1.8-6.9-5-6.5
											c-5.3,0.5-3.5-12.9-1.2-13.5c5.4-1.3,18.7,3.7,19.4,4.1c12.9,8.2,8.1,15.2,2.4,22.9c-1.8,2.4-7.6,11.9-2.4,12.4
											c6.5,0.6,9.3-1.2,12.9-5.3c4-4.5,9.7-33.3,12.4-34.7c6.5-3.3,18.4-2.2,20,5.9c0.7,3.4-23.5,18.7-15.9,23.5
											c6.9,4.3,22.7-17.2,31.2-10.6c5.3,4.1,20,12.4,8.2,13.5c-12.3,1.2-26.7,10.7-30,19.4c-1.8,4.7-7.1,15.5-4.7,16.5
											c3.9,1.7,6.8,1.8,12.7-0.3c0.8-0.3,1.8-0.1,2.4,0.5c2.2,2.2-3.2,6.3,0.2,5.7C205.1,122.9,206.3,122.9,207.6,121.2
											 M183.6,130.8c-2.8,1.9-4.4,5.2-4.1,8.5c0.4,3.5,2.7,8.2,10.3,8.2c3.5,0,7.6-5.9,4.7-10c-1.5-2.1-4.1-6.4-5.9-7.6
											C187.7,129.3,185.2,129.7,183.6,130.8 M167.1,145.6c-2.8,1.9-4.4,5.2-4.1,8.5c0.4,3.5,1.5,6.4,6.2,4.1
											c0.7-0.4,4.7-1.8,6.5-5.9c1-2.4-1.7-6.4-3.5-7.6C171.3,144,168.7,144.4,167.1,145.6"/>
									</g>
								</g>
							</g>
							<g>
								<g>
									<g id="圖稿_14_1_">
										<defs>
											<rect id="SVGID_9_" x="237" y="48" width="141" height="146.5"/>
										</defs>
										<clipPath id="SVGID_10_">
											<use xlink:href="#SVGID_9_"  style="overflow:visible;"/>
										</clipPath>
										<g class="st4">
											<g>
												<defs>
													<rect id="SVGID_11_" x="237" y="48" width="141" height="146.5"/>
												</defs>
												<clipPath id="SVGID_12_">
													<use xlink:href="#SVGID_11_"  style="overflow:visible;"/>
												</clipPath>
												<path class="st5" d="M276.2,52.1c1.9-0.4,18.1-4.1,24,3.8c6.6,8.7-4.4,25-0.6,27.2c2.4,1.4,10.5-3.2,12.6-8.8
													c3.8-10.1,1.4-16.3,4.4-20.9c1-1.5,11.5-4.5,13.3-5.1c4.6-1.4,8.8,2,10.1,5.7c1.7,5.1-5.1,10.1-10.7,19.6
													c-5.1,8.5-3.2,18.3,1.9,24.6c2.4,3,8.4,1.9,13.9,3.2c8.8,1.9,14.3,7.8,18.3,12c13.5,14.2,22.2,49.6,5.1,66.3
													c-9.6,9.4-28.9,10.1-31.6,10.1c-10.1,0-5.7-4.4-1.3-10.7c8.3-11.9,12.6,8.2,24.6-7.6c8.9-11.7,5.1-32.6,4.4-34.8
													c-3.2-10.8-12.8-25.9-21.5-25.3c-3.4,0.2-4,2.4-13.3,8.8c-9.8,6.8-5.1,9.5-17.7,8.8c-2.3-0.1-5.8-4.4-5.7-8.2
													c0.1-8.6,6.5-20.6,2.7-21.8c-6.9-2.1-20.4,25.2-21,27.4c-1.9,7.6-2.5,12.6-3.8,31.6s1.9,25.3,3.2,32.9
													c1.3,7.6-17.7,0-17.7,0s-1.3,0-0.6-3.2c0.4-2.2,0.6-14.5,0.6-22.2c0-1.5-2.1-2-2.8-0.7c-1.9,3.7-4.3,8.5-6.1,11.5
													c-3.2,5.7-19-3.4-19-5.7c0-7.6,2.4-4.3,8.2-10.1c5.7-5.7,12-19,20.9-32.2s1.2-15.4,0.6-19.6c-0.7-4.9-3.7,2.6-13.9,8.2
													c-7.9,4.4-8.2,1.3-15.8-3.2c-5.9-3.4-6.3-7-3.2-12.6c3.2-5.7,34.1-7.6,35.4-10.7c1.3-3.2,0.6-10.1-1.3-19
													c-1-4.9-8.9-6.7-8.5-11.4c0-0.1,0.1-0.6,0.3-1.3C266.4,54.3,273.4,52.8,276.2,52.1 M352.7,64.1c0,0,12,10.7,1.3,24.6
													s21.5,7,20.2-9.5c-0.4-5.7,1.6-12.3-3.8-17.7C360.2,51.4,342.8,51.3,352.7,64.1"/>
											</g>
										</g>
									</g>
								</g>
								<g>
									<path d="M401.2,175.1c0.3,0.5,0.9,1.5,1.6,3s1.1,2.4,1.1,2.7s-0.5,1.8-1.8,4.3c-1.2,2.5-2.3,4.4-3.1,5.5
										c-0.9,1.1-2,2.3-3.5,3.7s-2.4,2.2-2.8,2.4c-0.1,0-0.2,0-0.4-0.3c-0.2-0.2-0.3-0.5-0.5-0.9s-0.4-0.8-0.5-1.2
										c-0.2-0.4-0.3-0.8-0.5-1.1c-0.2-0.4-0.3-0.6-0.4-0.7c-0.1-0.1,0-0.3,0.3-0.6s0.7-0.7,1.4-1.3c0.6-0.6,1.3-1.3,2.1-2.1
										c0.7-0.8,1.6-1.9,2.5-3.3c0.9-1.4,1.8-3,2.6-4.7c0.4-0.9,0.7-1.8,1-2.8s0.5-1.7,0.6-2.2C401,175.3,401.1,175.1,401.2,175.1
										z M417.8,155c0.8,1.2,1.8,3,3.1,5.4c1.3,2.3,2,3.8,2.1,4.3c0,0.4-0.3,1.2-1.2,2.6s-1.7,2.6-2.7,3.7s-1.6,1.6-1.8,1.5
										c-0.3-0.2-0.4-2.3-0.4-6.4c-2,0.9-3.7,1.6-5.1,2.1c0.3,17.5,0.5,26.6,0.4,27.4c0,0.7-1.3,1.9-3.7,3.8
										c-1.7,1.3-2.5,1.7-2.4,1.2c0-0.7,0.1-10.9,0.1-30.6c-6.2,2-9.6,3-10,3c-0.3-0.4-0.8-1-1.5-2c-0.6-0.9-1.5-2.2-2.5-3.7
										c1.8,0,4.3-0.1,7.6-0.5c9-11.8,15.1-21,18.2-27.5l5.4,5.8c-7.4,8.8-13.9,15.8-19.4,21.1c4-0.6,8.3-1.5,12.9-2.5
										c0-2.4,0.1-4.5,0.3-6.2C417.5,155.7,417.6,154.9,417.8,155z M407.2,131.7l6.1,4.8c-0.4,0.5-1,1.1-1.8,1.8s-2.3,2-4.5,3.7
										c-2.3,1.7-4.4,3.1-6.6,4.2c3.7,2.6,5.6,4.1,5.7,4.4c0.1,0.4-0.6,1.4-2.2,3c-1.5,1.6-2.5,2.3-3,2c-0.2-0.1-0.6-1.2-1.1-3.1
										c-0.5-1.9-1.1-3.3-1.7-4.2c-0.4-0.6-1.3-1.6-2.7-3.1c-2.4-2.5-3.3-3.9-2.8-4c0,0,0.1,0,0.3,0c0.9,0.4,3.1,1.8,6.6,4.2
										C403.5,140.1,406.1,135.5,407.2,131.7z M415.8,174.7c0.1,0,0.7,0.4,1.5,1.1c0.9,0.7,1.6,1.2,2.1,1.5
										c0.5,0.4,1.1,0.8,1.9,1.4c0.7,0.6,1.3,1.1,1.7,1.5c0.4,0.4,0.6,0.8,0.7,1c0.2,0.7-0.3,2.2-1.5,4.5s-2.1,3.4-2.6,3.2
										c-0.3,0-0.5-0.6-0.6-1.7c-0.1-1.1-0.3-2.3-0.5-3.7s-0.5-2.5-0.9-3.2C415.3,176.5,414.7,174.6,415.8,174.7z M428.2,154.5
										l6.5,3.5l-0.4,4.2h9.4l0.4-20.4h-10.7h-4.8l-1.8-1.9l0.4-0.4c0.2-0.1,0.4-0.1,0.6-0.1c4.2,0.2,6.6,0.4,7.3,0.4h9.8l4.6-5.8
										l5.5,5.2l-3.9,4.1c-0.1,12.7-0.1,19.3-0.1,19.8c0,0.4-0.9,1.4-2.6,3c-1.8,1.6-2.9,2.4-3.3,2.4s-1.1-0.5-2.1-1.6
										s-1.7-2.1-2.2-2.9h-6.6c-0.4,6-0.4,11.9-0.2,17.8c0.3,5.9,0.9,9.1,1.9,9.6c1,0.3,2.6,0.4,4.8,0.4c2.2,0,4.4-0.2,6.8-0.7
										s3.8-1,4.1-1.7c0.3-0.7,1.1-2.4,2.3-5.3c1.2-2.9,2.8-6.8,4.8-11.9l1.1,0.6c-1.5,5.5-1.8,9.7-1.1,12.7
										c1,3.8,1.4,6.2,1.3,7.3c0,0.8-0.6,1.6-1.6,2.6s-2.4,1.7-4.3,2.1c-1.5,0.4-3.5,0.7-6,0.9s-5.2,0.2-8.1,0s-5-0.6-6.5-1.3
										c-0.9-0.4-1.6-0.9-2.2-1.5s-1.1-1.4-1.4-2.2s-0.5-1.5-0.6-2.1s-0.3-1.3-0.3-2.2c-0.1-0.9-0.1-1.4-0.1-1.5
										C428.3,185.5,428.2,174.4,428.2,154.5z"/>
									<path d="M461.8,172.5l-0.2-0.2c4.4-3.7,8.4-7.6,12.2-11.7c3.8-4.1,6.9-7.8,9.2-11.1c2.4-3.3,4.4-6.3,6-9
										c1.7-2.7,2.9-4.9,3.7-6.5c0.8-1.6,1.2-2.4,1.2-2.5c0.5-0.4,1.8-0.1,3.8,1c2.1,1,3.1,1.7,3.2,2.1c1.2,2.5,2.9,4.9,5.4,7.2
										c2.4,2.3,5.2,4.2,8.4,5.9c3.1,1.7,6.2,3.1,9.3,4.3c3,1.2,6.2,2.2,9.5,3.1c-4,1.2-7.8,3.1-11.4,5.8c-1-0.5-1.7-0.9-2.2-1.1
										c-0.5-0.3-1.4-0.8-2.8-1.7c-1.4-0.9-2.5-1.7-3.5-2.4c-1-0.8-2.1-1.8-3.6-3.1c-1.4-1.3-2.7-2.7-3.7-4.1
										c-1.1-1.4-2.2-3.1-3.3-5c-1.1-1.9-2.1-4-2.9-6.1c-3.3,5.1-7.2,10.2-11.9,15h10.2l4.9-4.4l4.2,4c0.5,1.2-0.4,1.9-2.7,2
										c-0.3,0-1,0-2.2,0h-15.9c-4.8,4.8-9.5,9-14.3,12.4C467.5,169.8,464,171.8,461.8,172.5z M475,174.7h0.4
										c1.5,1.8,2.5,3.4,3.1,5c0.6,1.5,0.7,3.5,0.5,5.8c-0.2,1.8-1.4,3.9-3.6,6.3c-2.2,2.4-4.2,4-6.1,4.8c-0.3-0.1-0.8-1-1.5-2.8
										s-1-3-1-3.7c0-0.2,0.3-0.4,0.8-0.6s1.1-0.7,1.9-1.4s1.6-1.6,2.3-2.7c0.7-1.2,1.2-2,1.5-2.5s0.6-1.4,0.9-2.8
										S474.8,176.9,475,174.7z M513.4,175c0.5,8.4,0.9,12.9,1.1,13.5c0.3,1.1,0.8,2.1,1.5,3.1s1.4,1.9,2,2.5s0.9,1,0.9,1
										c0.1,0.2,0,0.6-0.4,1.3c-0.3,0.6-1,1.3-1.9,2.1c-1,0.7-2.1,1.1-3.5,1.2c-1.4,0.1-5.5,0.3-12.1,0.3
										c-6.6,0.1-10.6,0-11.8-0.3c-0.9-0.1-1.9-0.9-3-2.4s-1.6-3.5-1.6-6.1v-12.7l-0.5-4.7c0-0.4,0.1-0.7,0.4-0.8
										c0.3-0.2,0.7-0.1,1.3,0.1l6,3.9l-1.1,1.5v10.9c0,0.9,0.1,1.6,0.2,2.3c0.1,0.6,0.3,1.1,0.5,1.4c0.2,0.3,0.4,0.6,0.7,0.8
										c0.3,0.2,0.5,0.3,0.6,0.4c0.2,0,0.3,0.1,0.5,0.1c1.6,0,4.3-0.2,8-0.5s6-0.7,6.9-1.3c0.2-0.1,0.5-0.4,0.7-0.7
										s0.5-0.8,0.7-1.4c0.2-0.6,0.4-1.2,0.6-1.8c0.2-0.6,0.4-1.3,0.6-2.2c0.2-0.9,0.4-1.7,0.6-2.3c0.1-0.6,0.3-1.5,0.5-2.6
										s0.4-1.9,0.5-2.4s0.2-1.3,0.4-2.4c0.2-1.1,0.3-1.7,0.4-2L513.4,175z M502.1,165.1l-15.3,0.6l-1.5-1.9l0.4-0.5
										c0.2-0.1,0.4-0.2,0.6-0.1c2.9,0.2,7.5,0.4,14,0.4h4.5c0.3-0.5,0.6-1.1,1-1.8s0.7-1.3,0.8-1.6c0.2-0.3,0.4-0.6,0.8-1
										c0.3-0.3,0.6-0.5,0.9-0.4c0.3,0.1,0.7,0.3,1.3,0.5c0.6,0.3,1.2,0.7,1.9,1.4c0.7,0.6,1.6,1.5,2.7,2.6c0,0-0.4,0.5-1.3,1.3
										c-0.9,0.8-2,1.8-3.3,3s-2.6,2.4-3.9,3.5c-1.3,1.2-2.4,2.3-3.3,3.2c-0.9,1-1.3,1.6-1.3,1.9c0,0.4,0.8,1.3,2.3,2.7
										s2.1,2.4,1.8,3c-0.2,0.8-1.1,1.9-2.7,3.4c-1.6,1.4-2.6,2.2-3.1,2.2c-0.3,0-0.5-0.5-0.8-1.6s-0.5-2.3-0.7-3.7
										c-0.3-1.4-0.6-2.4-0.9-2.9c-0.5-1-0.8-1.8-0.9-2.3c0-0.6,0.1-1.1,0.6-1.7c0.1,0,0.5-0.5,1.3-1.3s1.5-1.6,2.2-2.3
										s1.4-1.7,2.3-2.9c0.8-1.2,1.5-2.3,2.1-3.4h-2.5V165.1z M517.4,174.5c0.2,0,0.6,0.1,1,0.3c0.4,0.1,1.2,0.5,2.4,0.9
										c1.2,0.5,2.3,1,3.3,1.6s2.1,1.3,3.2,2.3c1.2,1,2,2,2.7,3c0.5,0.6,0.8,1.2,0.9,1.8c0.1,0.6,0.2,1.1,0.2,1.4
										c0,0.4-0.3,0.9-0.8,1.4c-0.5,0.6-0.9,1-1.2,1.2c-0.3,0.3-0.8,0.7-1.7,1.4s-1.5,1.2-1.8,1.4c-1,0.3-1.6,0.3-1.8-0.1
										c-0.3-0.4-0.3-1.1-0.2-2.1s0.2-1.6,0.2-1.9C523,182.8,520.9,178.5,517.4,174.5z"/>
									<path d="M563.4,150.8c-1.5-4.4-4-8.9-7.4-13.5c-1.4,2.3-4.2,5.8-8.4,10.6c-4.1,4.8-8.5,9.2-13,13l-0.2-0.1
										c6.6-8.7,12-18,16.1-27.9c0,0,0.1,0,0.2,0c0.1,0,0.3,0.1,0.5,0.2c0.3,0.1,0.5,0.3,0.8,0.4c0.2,0.1,0.5,0.3,0.9,0.6
										s0.6,0.4,0.9,0.6c0.3,0.2,0.6,0.4,0.9,0.6c0.3,0.2,0.6,0.4,0.8,0.5s0.4,0.3,0.6,0.4c0.2,0.1,0.3,0.2,0.3,0.3
										c1.4,0.7,3.4,2,6,3.9c2.5,1.9,4.1,3.3,4.7,4.4c0.3,1.4,0,2.9-0.9,4.3C565.2,150.6,564.3,151.1,563.4,150.8z M560.7,154.8
										l5.3,3.1l-1.9,2.7c0.2,10.7,0.2,16.2-0.1,16.3c-0.8,0.1-2.6,0.1-5.4,0H548v6.9h11.4l3.7-3.6l3.6,4.9c0,0.3-2.5,0.4-7.4,0.4
										H548v7.8h11.4l4.5-4.5l3.8,6c0,0.1-0.5,0.2-1.6,0.3c-1.1,0-2.5,0-4.1,0c-1.7,0-2.6-0.1-2.7-0.1H548l-0.1,2.5
										c0,0.4-0.7,1.2-2.1,2.4c-1.4,1.2-2.7,1.9-4.1,2.1v-7.3c0-1.1,0.1-3.2,0.1-6.4s0-6.6,0-10.3c0-3.6,0-7.2,0-10.8
										s0.1-6.5,0.1-8.8c0.1-2.3,0.2-3.4,0.4-3.4c0.5,0.1,2.3,1.2,5.5,3.1h10l1.7-3.2C559.9,154.5,560.2,154.4,560.7,154.8z
										 M548.1,175.3h9.7l-0.1-6.1h-9.6L548.1,175.3z M548.2,159.9l-0.1,7.6h9.6l-0.1-7.6H548.2z M555.8,149.9l2.4-1.4l2.2,2.4
										c0.1,0.2,0.2,0.4,0,0.6c-0.1,0.1-0.4,0.2-0.8,0.3c-0.4,0-0.8,0-1.1,0c-0.4,0-0.8,0-1.3,0s-0.9,0-1,0h-1.4l-5.4,0.1
										l-0.4-2.2c1,0.1,2.1,0.2,3.3,0.3h3.5V149.9z M603.8,147c0.3,0.2,0.4,0.6,0.2,1.2c0,0.1,0,0.2,0,0.2c0,0.1-0.1,0.2-0.2,0.4
										c-0.2,0.5-0.4,0.9-0.6,1.2c-0.2,0.3-0.5,0.5-0.9,0.8s-0.9,0.4-1.4,0.3c-3-0.3-6.1,0.1-9.3,1.1c0.1,0,0.2,0.1,0.2,0.1
										l5.3,3.1l-1.8,2.7c0.2,8.3,0.2,12.5-0.1,12.7c-0.8,0.1-2.6,0.1-5.5,0h-11.4l0.1,6.5h11.3l2.1-2.4c0.2-0.4,0.6-0.5,1.1-0.1
										l5.5,3.8l-2.7,3.3l0.6,11.5c0,0.8,0,1.2-0.1,1.3c-0.4,0.2-1.2,0.3-2.4,0.4c-1.2,0.1-2.3,0.1-3.5-0.1
										c-1-0.7-1.8-1.1-2.6-1.2l-9.1,0.1v1.7c0,0.3-0.4,1-1.3,2c-0.8,1-1.7,1.7-2.7,2.2c-0.5,0.1-1,0-1.3-0.2
										c-0.4-0.2-0.6-0.5-0.7-0.7c-0.1-0.2-0.2-0.3-0.2-0.4l0.1-5.8c0.1-1.7,0-7.7-0.3-18s-0.4-16.7-0.3-19.2h-0.1c0,0,0,0-0.1,0
										c-0.8,0.4-1.5,0.4-2.2,0.1c-0.7-0.3-1.3-0.7-1.8-1.3s-0.6-0.9-0.4-1.1c0.4-0.3,0.9-1.3,1.6-2.9c0.7-1.6,1.2-2.7,1.4-3.5
										c0.4-1.6,0.5-2.8,0.5-3.7c-0.1-0.9-0.2-1.7-0.4-2.5s-0.3-1.3-0.3-1.4c0-0.4,0.1-0.6,0.3-0.5c0.1,0,0.4,0.2,0.8,0.5
										c2.5,2.1,4.2,3.9,5,5.4h5.1v-5c-0.2-3-0.4-4.7-0.6-5.1c0-0.5,0.1-0.8,0.3-0.8c0.3-0.1,0.6-0.1,1,0c0.1,0,0.8,0.1,2,0.4
										c1.2,0.2,2.3,0.5,3.3,0.7l1.6,0.4L588,139l-0.1,5.8h6c0.4-0.3,0.8-1.1,1.3-2.2c0.5-1.1,0.9-1.8,1.2-2.2
										c0.5-0.5,1-0.5,1.4,0c0.2,0.3,0.6,0.9,1.2,1.7c0.6,0.8,1.2,1.7,2,2.5C601.8,145.5,602.7,146.3,603.8,147z M589.5,152.7
										c0,0,0.3-0.4,0.8-1s1-1.2,1.5-1.8s0.9-1.3,1.2-2s0.3-1.2,0.1-1.5h-16.7c-0.2,0.9-0.6,1.9-1.1,3.1c-0.9,2.2-1.4,3.4-1.5,3.7
										l4,2.4H589l1.7-3.2c-0.4,0.1-0.8,0.3-1,0.4L589.5,152.7z M578.4,169.1h10.4l-0.1-11.7h-10.5L578.4,169.1z M589.2,179h-10.7
										l0.2,13.2h10.7L589.2,179z"/>
								</g>
								<g>
									<path d="M302,205.5c0-1-0.1-2.1-0.1-3.1c0.3,0,0.6,0.1,0.9,0.1s0.7,0,1.1,0s0.8,0,1.1,0c0.3,0,0.6-0.1,0.9-0.1
										c-0.1,1-0.1,2.1-0.1,3.1s0,2.2,0,3.5v3.3c0,0.9,0,1.8,0,2.6s0,1.6,0,2.2c0.9,0,1.8,0,2.7-0.1c0.9,0,1.8-0.1,2.8-0.2
										c0,0.2-0.1,0.3-0.1,0.5c0,0.1,0,0.3,0,0.6s0,0.5,0,0.6s0,0.3,0.1,0.4c-0.4,0-1,0-1.6,0s-1.5,0-2.6,0c-1,0-1.8,0-2.4,0
										s-1.1,0-1.4,0s-0.6,0-0.8,0c-0.2,0-0.3,0-0.5,0c0.1-1,0.1-2,0.1-3s0-2.2,0-3.5V209C302.1,207.7,302.1,206.5,302,205.5z"/>
									<path d="M313.4,202.8c0-0.5,0.2-1,0.6-1.3c0.4-0.4,0.8-0.6,1.3-0.6s1,0.2,1.3,0.6c0.4,0.4,0.6,0.8,0.6,1.3s-0.2,1-0.6,1.3
										c-0.4,0.4-0.8,0.6-1.3,0.6s-1-0.2-1.3-0.6C313.6,203.8,313.4,203.3,313.4,202.8z M313.7,212.6c0-1,0-1.9,0-2.7
										c0-0.9-0.1-1.7-0.2-2.6c0.2,0,0.5,0.1,0.8,0.1s0.6,0,1,0c0.8,0,1.4,0,1.8-0.1c-0.1,0.9-0.1,1.7-0.2,2.6c0,0.9,0,1.8,0,2.7
										v1c0,1,0,1.9,0,2.8c0,0.9,0.1,1.7,0.2,2.5c-0.2,0-0.5,0-0.8,0s-0.7,0-1,0s-0.7,0-1,0s-0.6,0-0.8,0c0.1-0.8,0.1-1.6,0.2-2.5
										c0-0.9,0-1.8,0-2.8V212.6z"/>
									<path d="M328.8,213.5c-0.1,1.8-0.3,3.6-0.4,5.4c-0.2,0-0.4,0-0.6,0s-0.4,0-0.6,0s-0.4,0-0.6,0s-0.4,0-0.6,0
										c0.5-2.8,1-5.5,1.4-8.2s0.8-5.5,1.1-8.3c0.2,0,0.3,0.1,0.5,0.1s0.3,0,0.5,0c0.1,0,0.3,0,0.5,0s0.3-0.1,0.5-0.1
										c0.4,1,0.9,1.9,1.4,2.9s0.9,2,1.4,3s0.9,1.9,1.4,2.9c0.5,0.9,0.9,1.8,1.4,2.7c1-1.8,1.9-3.7,2.9-5.6s1.9-3.9,2.7-5.8
										c0.4,0.1,0.7,0.1,1,0.1s0.6,0,1-0.1c0.2,1.4,0.3,2.9,0.5,4.4c0.2,1.6,0.4,3.1,0.5,4.6c0.2,1.5,0.4,2.9,0.5,4.2
										c0.2,1.3,0.3,2.4,0.5,3.2c-0.3,0-0.6,0-1,0c-0.3,0-0.7,0-1,0s-0.6,0-1,0s-0.7,0-1,0c-0.1-1.6-0.2-3.4-0.4-5.4
										c-0.2-1.9-0.4-3.8-0.6-5.7l0,0c-0.9,1.9-1.8,3.7-2.7,5.6c-0.9,1.8-1.8,3.7-2.6,5.5c-0.1,0-0.2,0-0.2,0c-0.1,0-0.1,0-0.2,0
										s-0.2,0-0.2,0c-0.1,0-0.1,0-0.2,0c-0.9-1.8-1.7-3.6-2.6-5.4s-1.7-3.6-2.7-5.4l0,0C329.1,209.9,328.9,211.7,328.8,213.5z"/>
									<path d="M351,213.1c0,0.6,0.1,1.2,0.2,1.8s0.3,1,0.6,1.5c0.3,0.4,0.6,0.7,1,1c0.4,0.2,0.9,0.3,1.4,0.3c1.1,0,2.1-0.4,3-1.1
										l0.3,0.2l-0.5,1.3c-0.4,0.3-0.9,0.5-1.4,0.7c-0.6,0.2-1.3,0.3-2.2,0.3c-0.8,0-1.5-0.1-2.2-0.3s-1.3-0.6-1.9-1.1
										c-0.5-0.5-1-1.1-1.3-1.9c-0.3-0.8-0.5-1.7-0.5-2.7s0.1-1.9,0.4-2.7s0.7-1.4,1.2-1.9s1.1-0.9,1.8-1.2s1.4-0.4,2.2-0.4
										c1.6,0,2.8,0.5,3.6,1.4s1.3,2.2,1.3,3.9v0.5c0,0.1,0,0.2,0,0.3L351,213.1L351,213.1z M354.7,212c0-1.2-0.2-2.2-0.4-2.9
										c-0.3-0.7-0.7-1.1-1.3-1.1c-0.4,0-0.6,0.1-0.9,0.4s-0.4,0.5-0.6,0.9c-0.1,0.4-0.3,0.8-0.3,1.3s-0.1,0.9-0.1,1.4L354.7,212
										L354.7,212z"/>
									<path d="M360.1,202.8c0-0.5,0.2-1,0.6-1.3s0.8-0.6,1.3-0.6s1,0.2,1.3,0.6s0.6,0.8,0.6,1.3s-0.2,1-0.6,1.3
										c-0.4,0.4-0.8,0.6-1.3,0.6s-1-0.2-1.3-0.6C360.2,203.8,360.1,203.3,360.1,202.8z M360.3,212.6c0-1,0-1.9,0-2.7
										c0-0.9-0.1-1.7-0.2-2.6c0.2,0,0.5,0.1,0.8,0.1s0.6,0,1,0c0.8,0,1.4,0,1.8-0.1c-0.1,0.9-0.1,1.7-0.2,2.6c0,0.9,0,1.8,0,2.7
										v1c0,1,0,1.9,0,2.8c0,0.9,0.1,1.7,0.2,2.5c-0.2,0-0.5,0-0.8,0s-0.7,0-1,0c-0.4,0-0.7,0-1,0s-0.6,0-0.8,0
										c0.1-0.8,0.1-1.6,0.2-2.5c0-0.9,0-1.8,0-2.8V212.6z"/>
									<path d="M372.3,212.2v2.6h-6v-2.6H372.3z"/>
									<path d="M375.3,216.6c0.2,0.2,0.3,0.4,0.6,0.6c0.2,0.2,0.5,0.3,0.8,0.4c0.3,0.1,0.7,0.2,1.1,0.2c0.6,0,1-0.1,1.3-0.4
										c0.3-0.3,0.5-0.6,0.5-0.9c0-0.4-0.1-0.7-0.4-0.9s-0.6-0.4-1-0.6s-0.9-0.4-1.3-0.6c-0.5-0.2-0.9-0.4-1.3-0.7s-0.7-0.7-1-1.1
										c-0.3-0.4-0.4-1-0.4-1.7s0.1-1.3,0.4-1.7s0.6-0.9,1-1.2s0.9-0.5,1.4-0.7s1-0.2,1.5-0.2c0.7,0,1.3,0.1,1.8,0.3
										s1.1,0.5,1.6,0.8c-0.1,0.3-0.3,0.7-0.4,1c-0.1,0.4-0.2,0.7-0.2,1.1h-0.7c0-0.2-0.1-0.4-0.2-0.6c-0.1-0.2-0.3-0.5-0.5-0.7
										s-0.4-0.4-0.7-0.5c-0.3-0.1-0.6-0.2-1-0.2c-0.5,0-0.9,0.1-1.2,0.4s-0.5,0.6-0.5,1s0.1,0.7,0.4,0.9s0.6,0.4,1,0.6
										c0.4,0.2,0.9,0.4,1.4,0.5s1,0.4,1.4,0.7s0.8,0.6,1,1.1c0.3,0.4,0.4,1,0.4,1.7s-0.1,1.3-0.4,1.8s-0.6,0.9-1,1.2
										s-0.9,0.6-1.5,0.7c-0.6,0.1-1.1,0.2-1.7,0.2c-0.7,0-1.4-0.1-1.9-0.3s-1-0.4-1.4-0.6c0.2-0.8,0.3-1.5,0.4-2.3h0.6
										C375,216.2,375.2,216.4,375.3,216.6z"/>
									<path d="M384,204.7c0-1.3-0.1-2.6-0.1-4c0.2,0,0.5,0.1,0.8,0.1s0.7,0,1,0c0.4,0,0.7,0,1,0s0.6-0.1,0.8-0.1
										c-0.1,1.3-0.1,2.7-0.1,4s0,2.8,0,4.3l0,0c0.4-0.7,0.9-1.2,1.5-1.6s1.3-0.6,2.1-0.6c1.2,0,2.1,0.3,2.8,1
										c0.6,0.7,1,1.8,1,3.4c0,0.8,0,1.5,0,2.2s0,1.2,0,1.9c0,0.5,0,1.1,0,1.7c0,0.6,0.1,1.2,0.1,1.7c-0.2,0-0.5,0-0.8,0
										s-0.7,0-1,0s-0.7,0-1,0s-0.6,0-0.8,0c0.1-0.8,0.2-1.8,0.2-2.9c0-1.1,0-2.4,0-3.9c0-1-0.2-1.7-0.5-2.2s-0.8-0.7-1.5-0.7
										s-1.2,0.3-1.6,0.9s-0.5,1.5-0.5,2.6v1c0,0.2,0,0.5,0,1c0,0.4,0,0.9,0,1.4s0,1,0.1,1.5c0,0.5,0.1,1,0.1,1.4
										c-0.2,0-0.5,0-0.8,0s-0.7,0-1,0c-0.4,0-0.7,0-1,0s-0.6,0-0.8,0c0.1-1.3,0.1-2.6,0.1-3.9c0-1.3,0-2.8,0-4.3V209
										C384.1,207.5,384.1,206.1,384,204.7z"/>
									<path d="M404.6,217.1c-0.4,0.7-1,1.2-1.6,1.5s-1.3,0.5-2.1,0.5c-1.2,0-2.1-0.3-2.8-1c-0.6-0.7-1-1.8-1-3.3
										c0-0.8,0-1.5,0-2.2s0-1.2,0-1.9c0-0.5,0-1.1,0-1.7c0-0.6-0.1-1.2-0.1-1.8c0.2,0,0.5,0.1,0.8,0.1s0.7,0,1,0c0.4,0,0.7,0,1,0
										s0.6-0.1,0.8-0.1c-0.1,0.9-0.2,1.9-0.2,3s0,2.4,0,3.9c0,1,0.2,1.7,0.5,2.2s0.8,0.7,1.5,0.7s1.2-0.3,1.6-0.9
										s0.5-1.5,0.5-2.6v-1c0-1,0-1.9,0-2.7c0-0.9-0.1-1.7-0.2-2.6c0.4,0.1,1,0.1,1.8,0.1c0.4,0,0.7,0,1,0s0.6-0.1,0.8-0.1
										c-0.1,0.9-0.1,1.7-0.2,2.6c0,0.9,0,1.8,0,2.7v1c0,1,0,1.9,0,2.8c0,0.9,0.1,1.7,0.2,2.5c-0.3,0-0.6,0-0.9,0s-0.6,0-0.9,0
										s-0.6,0-0.9,0s-0.6,0-0.9,0L404.6,217.1L404.6,217.1z"/>
									<path d="M419.5,213.5c-0.1,1.8-0.3,3.6-0.4,5.4c-0.2,0-0.4,0-0.6,0s-0.4,0-0.6,0s-0.4,0-0.6,0s-0.4,0-0.6,0
										c0.5-2.8,1-5.5,1.4-8.2s0.8-5.5,1.1-8.3c0.2,0,0.3,0.1,0.5,0.1s0.3,0,0.5,0c0.1,0,0.3,0,0.5,0s0.3-0.1,0.5-0.1
										c0.4,1,0.9,1.9,1.4,2.9s0.9,2,1.4,3s0.9,1.9,1.4,2.9c0.5,0.9,0.9,1.8,1.4,2.7c1-1.8,1.9-3.7,2.9-5.6s1.9-3.9,2.7-5.8
										c0.4,0.1,0.7,0.1,1,0.1s0.6,0,1-0.1c0.2,1.4,0.3,2.9,0.5,4.4c0.2,1.6,0.4,3.1,0.5,4.6c0.2,1.5,0.4,2.9,0.5,4.2
										c0.2,1.3,0.3,2.4,0.5,3.2c-0.3,0-0.6,0-1,0c-0.3,0-0.7,0-1,0s-0.6,0-1,0s-0.7,0-1,0c-0.1-1.6-0.2-3.4-0.4-5.4
										c-0.2-1.9-0.4-3.8-0.6-5.7l0,0c-0.9,1.9-1.8,3.7-2.7,5.6c-0.9,1.8-1.8,3.7-2.6,5.5c-0.1,0-0.2,0-0.2,0c-0.1,0-0.1,0-0.2,0
										s-0.2,0-0.2,0c-0.1,0-0.1,0-0.2,0c-0.9-1.8-1.7-3.6-2.6-5.4c-0.9-1.8-1.7-3.6-2.7-5.4l0,0
										C419.8,209.9,419.6,211.7,419.5,213.5z"/>
									<path d="M441.7,213.1c0,0.6,0.1,1.2,0.2,1.8s0.3,1,0.6,1.5c0.3,0.4,0.6,0.7,1,1c0.4,0.2,0.9,0.3,1.4,0.3
										c1.1,0,2.1-0.4,3-1.1l0.3,0.2l-0.5,1.3c-0.4,0.3-0.9,0.5-1.4,0.7c-0.6,0.2-1.3,0.3-2.2,0.3c-0.8,0-1.5-0.1-2.2-0.3
										s-1.3-0.6-1.9-1.1c-0.5-0.5-1-1.1-1.3-1.9c-0.3-0.8-0.5-1.7-0.5-2.7s0.1-1.9,0.4-2.7s0.7-1.4,1.2-1.9s1.1-0.9,1.8-1.2
										c0.7-0.3,1.4-0.4,2.2-0.4c1.6,0,2.8,0.5,3.6,1.4s1.3,2.2,1.3,3.9v0.5c0,0.1,0,0.2,0,0.3L441.7,213.1L441.7,213.1z
										 M445.4,212c0-1.2-0.2-2.2-0.4-2.9c-0.3-0.7-0.7-1.1-1.3-1.1c-0.4,0-0.6,0.1-0.9,0.4s-0.4,0.5-0.6,0.9
										c-0.1,0.4-0.3,0.8-0.3,1.3c-0.1,0.5-0.1,0.9-0.1,1.4L445.4,212L445.4,212z"/>
									<path d="M453.9,209.1c0.4-0.7,1-1.2,1.6-1.6c0.6-0.4,1.3-0.6,2.1-0.6c0.7,0,1.3,0.2,1.9,0.6c0.5,0.4,0.9,1,1.2,1.7
										c0.5-0.7,1-1.3,1.7-1.7c0.6-0.4,1.3-0.6,2-0.6c1.2,0,2.1,0.3,2.8,1c0.6,0.7,1,1.8,1,3.4c0,0.8,0,1.5,0,2.2s0,1.2,0,1.9
										c0,0.5,0,1.1,0,1.7c0,0.6,0.1,1.2,0.1,1.7c-0.2,0-0.5,0-0.8,0s-0.7,0-1,0c-0.4,0-0.7,0-1,0s-0.6,0-0.8,0
										c0.1-0.8,0.2-1.8,0.2-2.9c0-1.1,0-2.4,0-3.9c0-1-0.2-1.7-0.5-2.2s-0.8-0.7-1.4-0.7c-0.4,0-0.7,0.1-0.9,0.3
										s-0.4,0.4-0.6,0.7c-0.1,0.3-0.2,0.6-0.3,0.9s-0.1,0.6-0.1,0.9v1.7c0,1,0,1.9,0,2.8c0,0.9,0.1,1.7,0.2,2.5
										c-0.2,0-0.5,0-0.8,0s-0.7,0-1,0c-0.4,0-0.7,0-1,0s-0.6,0-0.8,0c0.1-0.8,0.1-1.6,0.2-2.5c0-0.9,0-1.8,0-2.8v-1.5
										c0-1-0.1-1.7-0.4-2.2c-0.2-0.5-0.7-0.8-1.4-0.8c-0.7,0-1.2,0.3-1.6,0.9s-0.5,1.5-0.5,2.6v1c0,1,0,1.9,0,2.8
										c0,0.9,0.1,1.7,0.2,2.5c-0.2,0-0.5,0-0.8,0s-0.7,0-1,0s-0.7,0-1,0s-0.6,0-0.8,0c0.1-0.8,0.1-1.6,0.2-2.5c0-0.9,0-1.8,0-2.8
										v-1c0-1,0-1.9,0-2.7c0-0.9-0.1-1.7-0.2-2.6c0.3,0,0.6,0.1,0.9,0.1s0.6,0,0.9,0s0.6,0,0.9,0s0.6-0.1,0.9-0.1L453.9,209.1
										L453.9,209.1z"/>
									<path d="M470.1,213.4c0-1.1,0.2-2,0.5-2.8s0.8-1.5,1.3-2s1.2-0.9,1.9-1.2s1.4-0.4,2.2-0.4c1.9,0,3.3,0.5,4.3,1.6
										s1.5,2.5,1.5,4.3c0,1-0.1,1.9-0.4,2.6c-0.3,0.8-0.7,1.5-1.2,2c-0.5,0.6-1.1,1-1.9,1.2c-0.7,0.3-1.5,0.4-2.4,0.4
										c-0.7,0-1.4-0.1-2.1-0.3s-1.3-0.5-1.9-1s-1-1.1-1.4-1.8C470.3,215.4,470.1,214.5,470.1,213.4z M478.3,212.5
										c0-1.4-0.2-2.5-0.5-3.3c-0.4-0.8-0.9-1.2-1.8-1.2c-0.7,0-1.3,0.4-1.7,1.3c-0.4,0.9-0.6,2.2-0.6,4.1c0,0.7,0,1.3,0.1,1.9
										s0.2,1.1,0.4,1.5c0.2,0.4,0.4,0.8,0.7,1s0.7,0.4,1.1,0.4C477.5,218.2,478.3,216.3,478.3,212.5z"/>
									<path d="M487.4,210.3c0.4-1.1,0.9-1.9,1.5-2.4s1.3-0.8,2.1-0.8c0.1,0,0.1,0,0.2,0s0.1,0,0.2,0c0,0.2-0.1,0.5-0.1,0.8
										s0,0.6,0,1v0.8c0,0.1,0,0.3,0,0.4c0,0.1,0,0.3,0,0.4l-0.2,0.2c-0.2-0.1-0.3-0.2-0.5-0.2c-0.2-0.1-0.4-0.1-0.7-0.1
										c-0.7,0-1.3,0.2-1.7,0.7s-0.6,1-0.6,1.7v1c0,1,0,1.9,0,2.8c0,0.9,0.1,1.7,0.2,2.5c-0.2,0-0.5,0-0.8,0s-0.7,0-1,0
										c-0.4,0-0.7,0-1,0s-0.6,0-0.8,0c0.1-0.8,0.1-1.6,0.2-2.5c0-0.9,0-1.8,0-2.8v-1c0-1,0-1.9,0-2.7c0-0.9-0.1-1.7-0.2-2.6
										c0.3,0,0.5,0.1,0.8,0.1s0.6,0,0.8,0c0.3,0,0.5,0,0.8,0s0.6-0.1,0.8-0.1L487.4,210.3L487.4,210.3z"/>
									<path d="M493.4,202.8c0-0.5,0.2-1,0.6-1.3s0.8-0.6,1.3-0.6s1,0.2,1.3,0.6s0.6,0.8,0.6,1.3s-0.2,1-0.6,1.3
										c-0.4,0.4-0.8,0.6-1.3,0.6s-1-0.2-1.3-0.6C493.6,203.8,493.4,203.3,493.4,202.8z M493.7,212.6c0-1,0-1.9,0-2.7
										c0-0.9-0.1-1.7-0.2-2.6c0.2,0,0.5,0.1,0.8,0.1s0.6,0,1,0c0.8,0,1.4,0,1.8-0.1c-0.1,0.9-0.1,1.7-0.2,2.6c0,0.9,0,1.8,0,2.7
										v1c0,1,0,1.9,0,2.8c0,0.9,0.1,1.7,0.2,2.5c-0.2,0-0.5,0-0.8,0s-0.7,0-1,0s-0.7,0-1,0s-0.6,0-0.8,0c0.1-0.8,0.1-1.6,0.2-2.5
										c0-0.9,0-1.8,0-2.8V212.6z"/>
									<path d="M500.1,208.7c0.7-0.5,1.4-1,2.2-1.2c0.8-0.3,1.5-0.4,2.3-0.4c0.6,0,1.2,0.1,1.8,0.2c0.5,0.1,1,0.4,1.4,0.7
										s0.7,0.7,0.9,1.2s0.3,1.1,0.3,1.8c0,1,0,2,0,2.8c0,0.9,0,1.7,0,2.6c0,0.4,0,0.7,0.1,0.9s0.1,0.4,0.3,0.5
										c0.1,0.1,0.3,0.2,0.4,0.2c0.2,0,0.4,0,0.6,0v0.6c-0.5,0.2-0.9,0.3-1.2,0.4c-0.3,0.1-0.7,0.1-1,0.1c-0.6,0-1.1-0.1-1.4-0.4
										s-0.6-0.7-0.8-1.2c-0.4,0.5-0.8,0.9-1.3,1.2s-1.1,0.5-1.8,0.5c-0.6,0-1.1-0.1-1.6-0.2c-0.4-0.2-0.8-0.4-1.1-0.7
										c-0.3-0.3-0.5-0.6-0.6-1s-0.2-0.8-0.2-1.1c0-0.5,0.1-1,0.3-1.4s0.4-0.7,0.7-1c0.3-0.3,0.7-0.5,1.1-0.7s0.9-0.3,1.5-0.5
										c0.7-0.2,1.2-0.3,1.6-0.4c0.4-0.1,0.7-0.2,0.9-0.4c0.2-0.1,0.3-0.3,0.4-0.4c0.1-0.1,0.1-0.3,0.1-0.5c0-0.6-0.2-1.1-0.6-1.5
										c-0.4-0.4-1-0.6-1.7-0.6c-0.3,0-0.6,0-0.8,0.1c-0.3,0.1-0.6,0.2-0.8,0.3s-0.5,0.3-0.7,0.4s-0.4,0.3-0.5,0.5h-0.2
										L500.1,208.7z M505.7,215.2c0-0.7,0-1.2,0-1.6s0-0.7,0-0.9c-0.3,0.2-0.7,0.3-1.1,0.5s-0.7,0.3-1,0.5s-0.6,0.4-0.8,0.8
										c-0.2,0.3-0.3,0.8-0.3,1.4c0,0.6,0.1,1,0.4,1.4c0.2,0.3,0.6,0.5,1,0.5c0.5,0,1-0.2,1.3-0.6
										C505.6,216.6,505.7,216,505.7,215.2z"/>
									<path d="M512.3,204.7c0-1.3-0.1-2.6-0.1-4c0.2,0,0.5,0.1,0.8,0.1s0.7,0,1,0c0.4,0,0.7,0,1,0s0.6-0.1,0.8-0.1
										c-0.1,1.3-0.1,2.7-0.1,4s0,2.8,0,4.3v1.6c0,1.6,0,3,0,4.3s0.1,2.6,0.1,3.9c-0.2,0-0.5,0-0.8,0s-0.7,0-1,0c-0.4,0-0.7,0-1,0
										s-0.6,0-0.8,0c0.1-1.3,0.1-2.6,0.1-3.9c0-1.3,0-2.8,0-4.3V209C512.4,207.5,512.4,206.1,512.3,204.7z"/>
									<path d="M537.9,204.2c-0.8-0.4-1.7-0.7-2.8-0.7c-0.7,0-1.5,0.2-2.2,0.5s-1.4,0.8-1.9,1.4c-0.6,0.6-1,1.4-1.4,2.3
										c-0.4,0.9-0.5,2-0.5,3.3c0,1,0.1,1.8,0.4,2.7c0.3,0.8,0.6,1.5,1.1,2.1s1.1,1.1,1.8,1.4c0.7,0.3,1.5,0.5,2.5,0.5
										c0.2,0,0.4,0,0.7,0s0.5-0.1,0.8-0.1s0.5-0.1,0.7-0.1c0.2-0.1,0.4-0.1,0.5-0.2c0-0.2,0.1-0.4,0.1-0.7s0-0.6,0-1
										c0-1.3,0-2.3-0.1-2.9c0-0.6-0.1-1-0.1-1.3c0.2,0,0.4,0.1,0.6,0.1c0.3,0,0.6,0,1.1,0c0.6,0,1,0,1.3,0s0.5-0.1,0.7-0.1
										c0,0.1-0.1,0.3-0.1,0.6s0,0.6-0.1,1c0,0.4,0,0.8,0,1.2s0,0.8,0,1.2v0.8c0,0.4,0,0.8,0,1.1s0,0.6,0.1,0.7
										c-1.1,0.3-2.1,0.5-3.2,0.7c-1.1,0.2-2.1,0.3-3.2,0.3c-1.4,0-2.6-0.2-3.8-0.5c-1.2-0.4-2.2-0.9-3-1.6
										c-0.8-0.7-1.5-1.5-2-2.5s-0.7-2.1-0.7-3.3c0-1.5,0.3-2.9,0.8-4s1.2-2.1,2.1-2.9c0.9-0.8,1.9-1.3,3.2-1.7s2.5-0.6,3.9-0.6
										c1.2,0,2.3,0.1,3.2,0.4c0.9,0.2,1.8,0.6,2.6,1.1c-0.1,0.4-0.3,0.8-0.4,1.2c-0.1,0.4-0.2,0.8-0.3,1.2H540
										C539.3,205.2,538.7,204.6,537.9,204.2z"/>
									<path d="M544.1,208.7c0.7-0.5,1.4-1,2.2-1.2c0.8-0.3,1.5-0.4,2.3-0.4c0.6,0,1.2,0.1,1.8,0.2c0.5,0.1,1,0.4,1.4,0.7
										s0.7,0.7,0.9,1.2s0.3,1.1,0.3,1.8c0,1,0,2,0,2.8c0,0.9,0,1.7,0,2.6c0,0.4,0,0.7,0.1,0.9s0.1,0.4,0.3,0.5
										c0.1,0.1,0.3,0.2,0.4,0.2c0.2,0,0.4,0,0.6,0v0.6c-0.5,0.2-0.9,0.3-1.2,0.4c-0.3,0.1-0.7,0.1-1,0.1c-0.6,0-1.1-0.1-1.4-0.4
										s-0.6-0.7-0.8-1.2c-0.4,0.5-0.8,0.9-1.3,1.2s-1.1,0.5-1.8,0.5c-0.6,0-1.1-0.1-1.6-0.2c-0.4-0.2-0.8-0.4-1.1-0.7
										s-0.5-0.6-0.6-1s-0.2-0.8-0.2-1.1c0-0.5,0.1-1,0.3-1.4s0.4-0.7,0.7-1s0.7-0.5,1.1-0.7c0.4-0.2,0.9-0.3,1.5-0.5
										c0.7-0.2,1.2-0.3,1.6-0.4c0.4-0.1,0.7-0.2,0.9-0.4c0.2-0.1,0.3-0.3,0.4-0.4c0.1-0.1,0.1-0.3,0.1-0.5c0-0.6-0.2-1.1-0.6-1.5
										c-0.4-0.4-1-0.6-1.7-0.6c-0.3,0-0.6,0-0.8,0.1c-0.3,0.1-0.6,0.2-0.8,0.3s-0.5,0.3-0.7,0.4s-0.4,0.3-0.5,0.5h-0.2
										L544.1,208.7z M549.8,215.2c0-0.7,0-1.2,0-1.6s0-0.7,0-0.9c-0.3,0.2-0.7,0.3-1.1,0.5s-0.7,0.3-1,0.5s-0.6,0.4-0.8,0.8
										c-0.2,0.3-0.3,0.8-0.3,1.4c0,0.6,0.1,1,0.4,1.4c0.2,0.3,0.6,0.5,1,0.5c0.5,0,1-0.2,1.3-0.6
										C549.6,216.6,549.8,216,549.8,215.2z"/>
									<path d="M556.4,204.7c0-1.3-0.1-2.6-0.1-4c0.2,0,0.5,0.1,0.8,0.1s0.7,0,1,0c0.4,0,0.7,0,1,0s0.6-0.1,0.8-0.1
										c-0.1,1.3-0.1,2.7-0.1,4s0,2.8,0,4.3v1.6c0,1.6,0,3,0,4.3s0.1,2.6,0.1,3.9c-0.2,0-0.5,0-0.8,0s-0.7,0-1,0c-0.4,0-0.7,0-1,0
										s-0.6,0-0.8,0c0.1-1.3,0.1-2.6,0.1-3.9c0-1.3,0-2.8,0-4.3V209C556.4,207.5,556.4,206.1,556.4,204.7z"/>
									<path d="M563,204.7c0-1.3-0.1-2.6-0.1-4c0.2,0,0.5,0.1,0.8,0.1s0.7,0,1,0c0.4,0,0.7,0,1,0s0.6-0.1,0.8-0.1
										c-0.1,1.3-0.1,2.7-0.1,4s0,2.8,0,4.3v1.6c0,1.6,0,3,0,4.3s0.1,2.6,0.1,3.9c-0.2,0-0.5,0-0.8,0s-0.7,0-1,0c-0.4,0-0.7,0-1,0
										s-0.6,0-0.8,0c0.1-1.3,0.1-2.6,0.1-3.9c0-1.3,0-2.8,0-4.3V209C563.1,207.5,563.1,206.1,563,204.7z"/>
									<path d="M572.4,213.1c0,0.6,0.1,1.2,0.2,1.8c0.1,0.6,0.3,1,0.6,1.5c0.3,0.4,0.6,0.7,1,1c0.4,0.2,0.9,0.3,1.4,0.3
										c1.1,0,2.1-0.4,3-1.1l0.3,0.2l-0.5,1.3c-0.4,0.3-0.9,0.5-1.4,0.7c-0.6,0.2-1.3,0.3-2.2,0.3c-0.8,0-1.5-0.1-2.2-0.3
										s-1.3-0.6-1.9-1.1c-0.5-0.5-1-1.1-1.3-1.9c-0.3-0.8-0.5-1.7-0.5-2.7s0.1-1.9,0.4-2.7c0.3-0.8,0.7-1.4,1.2-1.9
										s1.1-0.9,1.8-1.2s1.4-0.4,2.2-0.4c1.6,0,2.8,0.5,3.6,1.4s1.3,2.2,1.3,3.9v0.5c0,0.1,0,0.2,0,0.3L572.4,213.1L572.4,213.1z
										 M576.1,212c0-1.2-0.2-2.2-0.4-2.9c-0.3-0.7-0.7-1.1-1.3-1.1c-0.4,0-0.6,0.1-0.9,0.4s-0.4,0.5-0.6,0.9
										c-0.1,0.4-0.3,0.8-0.3,1.3c-0.1,0.5-0.1,0.9-0.1,1.4L576.1,212L576.1,212z"/>
									<path d="M584.7,210.3c0.4-1.1,0.9-1.9,1.5-2.4s1.3-0.8,2.1-0.8c0.1,0,0.1,0,0.2,0c0.1,0,0.1,0,0.2,0c0,0.2-0.1,0.5-0.1,0.8
										s0,0.6,0,1v0.8c0,0.1,0,0.3,0,0.4c0,0.1,0,0.3,0,0.4l-0.2,0.2c-0.2-0.1-0.3-0.2-0.5-0.2c-0.2-0.1-0.4-0.1-0.7-0.1
										c-0.7,0-1.3,0.2-1.7,0.7s-0.6,1-0.6,1.7v1c0,1,0,1.9,0,2.8c0,0.9,0.1,1.7,0.2,2.5c-0.2,0-0.5,0-0.8,0s-0.7,0-1,0
										c-0.4,0-0.7,0-1,0s-0.6,0-0.8,0c0.1-0.8,0.1-1.6,0.2-2.5c0-0.9,0-1.8,0-2.8v-1c0-1,0-1.9,0-2.7c0-0.9-0.1-1.7-0.2-2.6
										c0.3,0,0.5,0.1,0.8,0.1s0.6,0,0.8,0c0.3,0,0.5,0,0.8,0s0.6-0.1,0.8-0.1V210.3L584.7,210.3z"/>
									<path d="M596.2,214.9c0.3-0.7,0.6-1.4,0.8-2.1c0.2-0.6,0.5-1.2,0.7-1.8s0.4-1.2,0.6-1.8c0.2-0.6,0.4-1.2,0.6-1.9
										c0.2,0,0.3,0.1,0.5,0.1s0.3,0,0.5,0s0.3,0,0.5,0s0.3-0.1,0.5-0.1c-0.1,0.2-0.3,0.7-0.6,1.3c-0.3,0.7-0.7,1.5-1.1,2.5
										s-0.9,2.1-1.4,3.3s-1,2.4-1.5,3.7c-0.5,1.2-1,2.5-1.5,3.7s-0.9,2.3-1.3,3.3c-0.2,0-0.3-0.1-0.5-0.1s-0.3,0-0.5,0
										s-0.3,0-0.5,0s-0.3,0.1-0.5,0.1c0.5-1.1,1-2.1,1.6-3.1c0.5-1,1-2.1,1.5-3.1c-0.4-0.9-0.8-1.9-1.3-3.1s-0.9-2.3-1.4-3.4
										c-0.5-1.1-0.9-2.1-1.2-3s-0.7-1.6-0.9-2.1c0.3,0,0.6,0.1,0.9,0.1c0.3,0,0.6,0,0.9,0c0.3,0,0.6,0,0.9,0
										c0.3,0,0.6-0.1,0.9-0.1c0.5,1.3,0.9,2.5,1.4,3.8C595.2,212.3,595.7,213.6,596.2,214.9z"/>
								</g>
							</g>
							<g>
								<path d="M259.3,205.1c0-0.4,0-0.7-0.1-0.8c-0.2,0-0.5,0-0.9,0s-0.7,0-1.1,0.1c-0.4,0-0.8,0.1-1.2,0.1s-0.8,0.1-1.2,0.1
									c0-0.2,0.1-0.4,0.1-0.5c0-0.2,0-0.4,0-0.5s0-0.4,0-0.5c0-0.2-0.1-0.4-0.1-0.5c0.5,0,1,0,1.5,0c0.4,0,0.9,0,1.3,0
									c0.5,0,1,0,1.5,0s1.2,0,1.9,0c0.8,0,1.4,0,1.9,0s1,0,1.5,0c0.4,0,0.9,0,1.3,0s0.9,0,1.4,0c0,0.2-0.1,0.4-0.1,0.5
									c0,0.2,0,0.4,0,0.5s0,0.4,0,0.5c0,0.2,0.1,0.4,0.1,0.5c-0.3,0-0.7-0.1-1.1-0.1s-0.8-0.1-1.2-0.1c-0.4,0-0.8,0-1.1-0.1
									c-0.4,0-0.6,0-0.9,0c0,0.1,0,0.2,0,0.3s0,0.3,0,0.5v1.3v6c0,1.3,0,2.5,0,3.5s0.1,2,0.1,3c-0.3,0-0.6,0-0.9,0s-0.7,0-1.1,0
									s-0.8,0-1.1,0c-0.3,0-0.6,0-0.9,0c0.1-1,0.1-2,0.1-3s0-2.2,0-3.5v-6C259.3,205.9,259.3,205.5,259.3,205.1z"/>
								<path d="M268,204.8c0-1.3-0.1-2.6-0.1-4c0.2,0,0.5,0.1,0.8,0.1s0.7,0,1,0s0.7,0,1,0s0.6-0.1,0.8-0.1c-0.1,1.3-0.1,2.7-0.1,4
									s0,2.8,0,4.3l0,0c0.4-0.7,0.9-1.2,1.5-1.6s1.3-0.6,2.1-0.6c1.2,0,2.1,0.3,2.8,1c0.6,0.7,1,1.8,1,3.4c0,0.8,0,1.5,0,2.2
									c0,0.6,0,1.2,0,1.9c0,0.5,0,1.1,0,1.7c0,0.6,0.1,1.2,0.1,1.7c-0.2,0-0.5,0-0.8,0s-0.7,0-1,0c-0.4,0-0.7,0-1,0s-0.6,0-0.8,0
									c0.1-0.8,0.2-1.8,0.2-2.9c0-1.1,0-2.4,0-3.9c0-1-0.2-1.7-0.5-2.2s-0.8-0.7-1.5-0.7s-1.2,0.3-1.6,0.9s-0.5,1.5-0.5,2.6v1
									c0,0.2,0,0.5,0,1c0,0.4,0,0.9,0,1.4s0,1,0.1,1.5c0,0.5,0.1,1,0.1,1.4c-0.2,0-0.5,0-0.8,0s-0.7,0-1,0s-0.7,0-1,0
									s-0.6,0-0.8,0c0.1-1.3,0.1-2.6,0.1-3.9c0-1.3,0-2.8,0-4.3v-1.6C268.1,207.6,268,206.2,268,204.8z"/>
								<path d="M284.3,213.2c0,0.6,0.1,1.2,0.2,1.8s0.3,1,0.6,1.5c0.3,0.4,0.6,0.7,1,1c0.4,0.2,0.9,0.3,1.4,0.3
									c1.1,0,2.1-0.4,3-1.1l0.3,0.2l-0.5,1.3c-0.4,0.3-0.9,0.5-1.4,0.7s-1.3,0.3-2.2,0.3c-0.8,0-1.5-0.1-2.2-0.3s-1.3-0.6-1.9-1.1
									c-0.5-0.5-1-1.1-1.3-1.9c-0.3-0.8-0.5-1.7-0.5-2.7s0.1-1.9,0.4-2.7s0.7-1.4,1.2-1.9s1.1-0.9,1.8-1.2
									c0.7-0.3,1.4-0.4,2.2-0.4c1.6,0,2.8,0.5,3.6,1.4c0.8,0.9,1.3,2.2,1.3,3.9v0.5c0,0.1,0,0.2,0,0.3L284.3,213.2L284.3,213.2z
									 M288,212.1c0-1.2-0.2-2.2-0.4-2.9c-0.3-0.7-0.7-1.1-1.3-1.1c-0.4,0-0.6,0.1-0.9,0.4c-0.2,0.2-0.4,0.5-0.6,0.9
									c-0.1,0.4-0.3,0.8-0.3,1.3c-0.1,0.5-0.1,0.9-0.1,1.4L288,212.1L288,212.1z"/>
							</g>
						</g>
					</g>
				</g>
			</g>
		</g>
	</g>
</g>
</svg>
