<?xml version="1.0" encoding="utf-8"?>
<!-- Generator: Adobe Illustrator 22.0.1, SVG Export Plug-In . SVG Version: 6.00 Build 0)  -->
<svg version="1.1" id="圖層_1" xmlns="http://www.w3.org/2000/svg" xmlns:xlink="http://www.w3.org/1999/xlink" x="0px" y="0px"
	 viewBox="0 0 624.3 253.2" style="enable-background:new 0 0 624.3 253.2;" xml:space="preserve">
<style type="text/css">
	.st0{clip-path:url(#SVGID_2_);}
	.st1{clip-path:url(#SVGID_4_);fill:#040000;}
	.st2{clip-path:url(#SVGID_6_);}
	.st3{clip-path:url(#SVGID_8_);fill:#040000;}
	.st4{clip-path:url(#SVGID_10_);}
	.st5{clip-path:url(#SVGID_12_);fill:#040000;}
</style>
<g>
	<g>
		<g>
			<g id="圖稿_12_1_">
				<g>
					<defs>
						<rect id="SVGID_1_" x="10" y="14" width="116.4" height="213"/>
					</defs>
					<clipPath id="SVGID_2_">
						<use xlink:href="#SVGID_1_"  style="overflow:visible;"/>
					</clipPath>
					<g class="st0">
						<defs>
							<rect id="SVGID_3_" x="10" y="14" width="116.4" height="213"/>
						</defs>
						<clipPath id="SVGID_4_">
							<use xlink:href="#SVGID_3_"  style="overflow:visible;"/>
						</clipPath>
						<path class="st1" d="M41.2,98.2c-0.2,0.1-0.5,0.1-0.7,0.2c-5,2.2-9.2,5.8-10.9,8.4c-6.8,10.6-12,13.1-15.4,12.1
							c-2.3-0.7-4.5-5.3-3.5-22.4c0.1-1.3,0.9-2.5,2.1-3c2.9-1.2,6.9-2.8,11.8-4.1c19-5.3,31.7-2.8,33.7-8.3
							c1.2-3.2-1.5-8.6-2.9-11.1C54.9,69,54,68.4,53,68.2c-3.3-0.6-11.2-1.8-18.8-0.5c-11,1.8-15.5,2.2-18.7-1.2
							c-2.6-2.8-5-8.3-5.4-12.2c-0.2-2.2,1.6-4,3.8-3.8c8.4,0.9,35,3.6,42.4,0.1c8.7-4.2,8.3-7.9,8.3-7.9s1.5-3.4,1.7-11.8
							c0-0.6-0.1-1.2-0.5-1.8c-0.9-1.5-2.4-5.3,2.1-8.9l5.8-4.6c0,0,4.6-3.7,10,0c4.6,3.2,4.4,9.1,4.2,10.8c0,0.4,0,0.7,0.1,1.1
							c0.4,1.9,2,7.8,6.5,6.1c7.3-2.8,11.6,4.2,11.6,4.2s2.9,4.6-10.4,14.6C81.9,62.6,76.3,67.5,77,69.7c0.4,1.2,3.2,2.3,14.5,0.9
							c0.6-0.1,1.1-0.3,1.6-0.6c12.4-8.7,25.4-8.7,30.5-2.8c3,3.4,3.4,8.9,2.1,13.3c-2.2,7.4-8.7,9.9-18.7,16.2
							c-20.1,12.7-36.8,29.7-35.5,31.5c0.1,0.1,0.2,0.1,0.2,0.1c1.6,0.5,8,4.2,20.8,11.6c11.1,6.4,12.9,41.9-4.6,66.1
							c-7.9,10.9-17.9,17.1-25.1,20.5c-1.7,0.8-3.8,0.1-4.6-1.6c-1-2-1.5-4.2-0.7-6c1.5-3.3,6.1-2.9,10.8-5.8c2-1.3,4.3-3.3,6.4-6.8
							c1.5-2.6-0.8-5.7-3.7-5.1c-1,0.2-2,0.4-3.1,0.7c0,0-16.6,2.9-24.1,0c-7.5-2.9-21.6-11.2-22-20c-0.3-3.5-0.8-13.6,5.9-20.9
							c9.8-10.6,28.2-7.8,39-1.2c5.7,3.5,9.5,8.1,12,12.1c1.7,2.7,5.9,1.8,6.3-1.4c0.5-3.8,0.3-8.3-1.3-13.2
							c-3.8-11.2-13.1-16.5-17.2-18.4c-1.1-0.5-2.4-0.4-3.4,0.3c-1.5,1-3.7,2.2-6.5,2.7c-5.7,1-12.6-1.1-12.9-3.7
							c-0.3-2.6,5.6-3.4,12.5-10.8c2.8-3.1,6.7-8.2,5.7-9.3c-2.2-2.4-33.6,23.8-33.9,7.7c-0.4-20.4,22.5-10.8,22.9-21.2
							c0.1-1.6,0.2-2.8,0.4-3.9c0.4-2.4-1.8-4.4-4.1-3.9L41.2,98.2z M37.1,168.7c0,0-8.7,20.8,18.3,22.9c16.2,1.2,20.4,1.2,7.5-18.7
							C54.2,159.5,42.1,158.3,37.1,168.7 M75.7,77.2c0,0-0.8,14.1,3.7,16.2c4.5,2,13.8,0.5,34.1-14.6c4.2-3.1,6-10.8-1.9-10.5
							c-3,0.1-7.8,3.6-13.9,5.9c-1.4,0.5-5.1,1.5-10,2.9C84.4,78.2,75.7,77.2,75.7,77.2"/>
					</g>
				</g>
			</g>
			<g id="圖稿_16_1_">
				<g>
					<defs>
						<rect id="SVGID_5_" x="112" y="57" width="129.3" height="148.7"/>
					</defs>
					<clipPath id="SVGID_6_">
						<use xlink:href="#SVGID_5_"  style="overflow:visible;"/>
					</clipPath>
					<g class="st2">
						<defs>
							<rect id="SVGID_7_" x="112" y="57" width="129.3" height="148.7"/>
						</defs>
						<clipPath id="SVGID_8_">
							<use xlink:href="#SVGID_7_"  style="overflow:visible;"/>
						</clipPath>
						<path class="st3" d="M214.6,131.2c1.1-1.4,1.6-3.1,1.7-4.8c0.1-2.7,0.2-7.9-0.7-10c-1.2-2.9,2.9-6.5,5.9-8.2
							c4.1-2.5,10,0.6,9.4,9.4c-0.1,1.5-1.1,3.2-2.9,8.8c-0.6,1.8-0.5,3.1,0,4.7c0.6,1.9,1.9,2.4,3.5,2.4c1.9,0,7.2-2.5,8.2,5.3
							c3.5,26.5,0.1,38-3.5,42.9c-6.6,9.2-18.2,20.2-21.1,22.9c-0.7,0.7-1.7,1.1-2.8,1.1c-1.7,0-4.4-0.7-7.9-4
							c-3.8-3.4-4.5-6.9-2.9-7.1c11.8-1.2,17.6-5.3,20.6-9.4c6.5-9.1,12.4-17.6,8.8-35.9c-3.1-16.2-8.9-11.2-12.2-6.6
							c-1.6,2.3-2.3,5.2-1.8,8c0.8,4.9,1.7,12.7-0.7,11.5c-3.1-1.5-9.7-0.4-11.4-0.1c-0.4,0.1-0.8,0.3-1.1,0.6
							c-0.9,0.8-1.6,2.8,4.3,6.6c8.2,5.3,6.5,10.6,5.9,15.9c-0.6,5.3-4.1,0.6-10.6,1.8c-6.5,1.2-5.9-4.7-7.6-7.1
							c-1.8-2.4-12.9-2.4-22.9,0c-10,2.4-9.4-15.9-10-27.7c-0.6-11.8,4.7,2.4,21.2-22.9c15.7-24.1-1.2-23.6-2.8-23.5
							c-0.1,0-0.2,0-0.2,0c-1.8,0.3-23.5,4.3-25.2,22.9c-1.8,19.4-0.6,48.2,2.4,57.7c1.9,6.2,7.6,12.9,7.1,17.1
							c-0.6,4.1-20.5-8.7-21.2-12.4c-1-5.8-0.1-14.5,0.9-22.8c0.2-2-2.5-2.8-3.4-1l-6.9,11.5c-3.5,7.1-17.6-0.6-11.8-6.5
							c4.7-4.7,14-23.2,17.4-31.7c1-2.4,1.4-5,1.4-7.6c-0.1-4.1,0.2-8.5-0.5-10.7c-1.2-3.5-12.4,2.4-18.2,3.5s-6.5-6.5-10-10.6
							c-2.1-2.5,0.9-4.1,3.7-5c1.6-0.5,3.4-0.8,5.1-0.9c5.6-0.3,23.1-2,26-13.5c0.4-1.4,1.1-5,1.7-7.6c0.6-2.9,0.8-5.9,0.3-8.8
							c-0.5-3.4-1.8-6.9-5-6.5c-5.3,0.5-3.5-12.9-1.2-13.5c5.4-1.3,18.7,3.7,19.4,4.1c12.9,8.2,8.1,15.2,2.4,22.9
							c-1.8,2.4-7.6,11.9-2.4,12.4c6.5,0.6,9.3-1.2,12.9-5.3c4-4.5,9.7-33.3,12.4-34.7c6.5-3.3,18.4-2.2,20,5.9
							c0.7,3.4-23.5,18.7-15.9,23.5c6.9,4.3,22.7-17.2,31.2-10.6c5.3,4.1,20,12.4,8.2,13.5c-12.3,1.2-26.7,10.7-30,19.4
							c-1.8,4.7-7.1,15.5-4.7,16.5c3.9,1.7,6.8,1.8,12.7-0.3c0.8-0.3,1.8-0.1,2.4,0.5c2.2,2.2-3.2,6.3,0.2,5.7
							C212.1,132.9,213.3,132.9,214.6,131.2 M190.6,140.8c-2.8,1.9-4.4,5.2-4.1,8.5c0.4,3.5,2.7,8.2,10.3,8.2c3.5,0,7.6-5.9,4.7-10
							c-1.5-2.1-4.1-6.4-5.9-7.6C194.7,139.3,192.2,139.7,190.6,140.8 M174.1,155.6c-2.8,1.9-4.4,5.2-4.1,8.5
							c0.4,3.5,1.5,6.4,6.2,4.1c0.7-0.4,4.7-1.8,6.5-5.9c1-2.4-1.7-6.4-3.5-7.6C178.3,154,175.7,154.4,174.1,155.6"/>
					</g>
				</g>
			</g>
			<g id="圖稿_14_1_">
				<g>
					<defs>
						<rect id="SVGID_9_" x="244" y="58" width="141" height="146.5"/>
					</defs>
					<clipPath id="SVGID_10_">
						<use xlink:href="#SVGID_9_"  style="overflow:visible;"/>
					</clipPath>
					<g class="st4">
						<defs>
							<rect id="SVGID_11_" x="244" y="58" width="141" height="146.5"/>
						</defs>
						<clipPath id="SVGID_12_">
							<use xlink:href="#SVGID_11_"  style="overflow:visible;"/>
						</clipPath>
						<path class="st5" d="M283.2,62.1c1.9-0.4,18.1-4.1,24,3.8c6.6,8.7-4.4,25-0.6,27.2c2.4,1.4,10.5-3.2,12.6-8.8
							c3.8-10.1,1.4-16.3,4.4-20.9c1-1.5,11.5-4.5,13.3-5.1c4.6-1.4,8.8,2,10.1,5.7c1.7,5.1-5.1,10.1-10.7,19.6
							c-5.1,8.5-3.2,18.3,1.9,24.6c2.4,3,8.4,1.9,13.9,3.2c8.8,1.9,14.3,7.8,18.3,12c13.5,14.2,22.2,49.6,5.1,66.3
							c-9.6,9.4-28.9,10.1-31.6,10.1c-10.1,0-5.7-4.4-1.3-10.7c8.3-11.9,12.6,8.2,24.6-7.6c8.9-11.7,5.1-32.6,4.4-34.8
							c-3.2-10.8-12.8-25.9-21.5-25.3c-3.4,0.2-4,2.4-13.3,8.8c-9.8,6.8-5.1,9.5-17.7,8.8c-2.3-0.1-5.8-4.4-5.7-8.2
							c0.1-8.6,6.5-20.6,2.7-21.8c-6.9-2.1-20.4,25.2-21,27.4c-1.9,7.6-2.5,12.6-3.8,31.6c-1.3,19,1.9,25.3,3.2,32.9
							c1.3,7.6-17.7,0-17.7,0s-1.3,0-0.6-3.2c0.4-2.2,0.6-14.5,0.6-22.2c0-1.5-2.1-2-2.8-0.7c-1.9,3.7-4.3,8.5-6.1,11.5
							c-3.2,5.7-19-3.4-19-5.7c0-7.6,2.4-4.3,8.2-10.1c5.7-5.7,12-19,20.9-32.2s1.2-15.4,0.6-19.6c-0.7-4.9-3.7,2.6-13.9,8.2
							c-7.9,4.4-8.2,1.3-15.8-3.2c-5.9-3.4-6.3-7-3.2-12.6c3.2-5.7,34.1-7.6,35.4-10.7c1.3-3.2,0.6-10.1-1.3-19
							c-1-4.9-8.9-6.7-8.5-11.4c0-0.1,0.1-0.6,0.3-1.3C273.4,64.3,280.4,62.8,283.2,62.1 M359.7,74.1c0,0,12,10.7,1.3,24.6
							c-10.7,13.9,21.5,7,20.2-9.5c-0.4-5.7,1.6-12.3-3.8-17.7C367.2,61.4,349.8,61.3,359.7,74.1"/>
					</g>
				</g>
			</g>
		</g>
		<g>
			<path d="M408.2,185.1c0.3,0.5,0.9,1.5,1.6,3c0.7,1.5,1.1,2.4,1.1,2.7c0,0.3-0.5,1.8-1.8,4.3c-1.2,2.5-2.3,4.4-3.1,5.5
				c-0.9,1.1-2,2.3-3.5,3.7c-1.5,1.4-2.4,2.2-2.8,2.4c-0.1,0-0.2,0-0.4-0.3c-0.2-0.2-0.3-0.5-0.5-0.9c-0.2-0.4-0.4-0.8-0.5-1.2
				c-0.2-0.4-0.3-0.8-0.5-1.1c-0.2-0.4-0.3-0.6-0.4-0.7c-0.1-0.1,0-0.3,0.3-0.6s0.7-0.7,1.4-1.3c0.6-0.6,1.3-1.3,2.1-2.1
				c0.7-0.8,1.6-1.9,2.5-3.3c0.9-1.4,1.8-3,2.6-4.7c0.4-0.9,0.7-1.8,1-2.8c0.3-1,0.5-1.7,0.6-2.2C408,185.3,408.1,185.1,408.2,185.1
				z M424.8,165c0.8,1.2,1.8,3,3.1,5.4c1.3,2.3,2,3.8,2.1,4.3c0,0.4-0.3,1.2-1.2,2.6s-1.7,2.6-2.7,3.7s-1.6,1.6-1.8,1.5
				c-0.3-0.2-0.4-2.3-0.4-6.4c-2,0.9-3.7,1.6-5.1,2.1c0.3,17.5,0.5,26.6,0.4,27.4c0,0.7-1.3,1.9-3.7,3.8c-1.7,1.3-2.5,1.7-2.4,1.2
				c0-0.7,0.1-10.9,0.1-30.6c-6.2,2-9.6,3-10,3c-0.3-0.4-0.8-1-1.5-2c-0.6-0.9-1.5-2.2-2.5-3.7c1.8,0,4.3-0.1,7.6-0.5
				c9-11.8,15.1-21,18.2-27.5l5.4,5.8c-7.4,8.8-13.9,15.8-19.4,21.1c4-0.6,8.3-1.5,12.9-2.5c0-2.4,0.1-4.5,0.3-6.2
				C424.5,165.7,424.6,164.9,424.8,165z M414.2,141.7l6.1,4.8c-0.4,0.5-1,1.1-1.8,1.8c-0.8,0.7-2.3,2-4.5,3.7
				c-2.3,1.7-4.4,3.1-6.6,4.2c3.7,2.6,5.6,4.1,5.7,4.4c0.1,0.4-0.6,1.4-2.2,3c-1.5,1.6-2.5,2.3-3,2c-0.2-0.1-0.6-1.2-1.1-3.1
				c-0.5-1.9-1.1-3.3-1.7-4.2c-0.4-0.6-1.3-1.6-2.7-3.1c-2.4-2.5-3.3-3.9-2.8-4c0,0,0.1,0,0.3,0c0.9,0.4,3.1,1.8,6.6,4.2
				C410.5,150.1,413.1,145.5,414.2,141.7z M422.8,184.7c0.1,0,0.7,0.4,1.5,1.1c0.9,0.7,1.6,1.2,2.1,1.5c0.5,0.4,1.1,0.8,1.9,1.4
				c0.7,0.6,1.3,1.1,1.7,1.5c0.4,0.4,0.6,0.8,0.7,1c0.2,0.7-0.3,2.2-1.5,4.5c-1.2,2.3-2.1,3.4-2.6,3.2c-0.3,0-0.5-0.6-0.6-1.7
				c-0.1-1.1-0.3-2.3-0.5-3.7c-0.2-1.4-0.5-2.5-0.9-3.2C422.3,186.5,421.7,184.6,422.8,184.7z M435.2,164.5l6.5,3.5l-0.4,4.2h9.4
				l0.4-20.4h-10.7h-4.8l-1.8-1.9l0.4-0.4c0.2-0.1,0.4-0.1,0.6-0.1c4.2,0.2,6.6,0.4,7.3,0.4h9.8l4.6-5.8l5.5,5.2l-3.9,4.1
				c-0.1,12.7-0.1,19.3-0.1,19.8c0,0.4-0.9,1.4-2.6,3c-1.8,1.6-2.9,2.4-3.3,2.4c-0.4,0-1.1-0.5-2.1-1.6c-1-1.1-1.7-2.1-2.2-2.9h-6.6
				c-0.4,6-0.4,11.9-0.2,17.8c0.3,5.9,0.9,9.1,1.9,9.6c1,0.3,2.6,0.4,4.8,0.4c2.2,0,4.4-0.2,6.8-0.7s3.8-1,4.1-1.7
				c0.3-0.7,1.1-2.4,2.3-5.3c1.2-2.9,2.8-6.8,4.8-11.9l1.1,0.6c-1.5,5.5-1.8,9.7-1.1,12.7c1,3.8,1.4,6.2,1.3,7.3
				c0,0.8-0.6,1.6-1.6,2.6c-1,1-2.4,1.7-4.3,2.1c-1.5,0.4-3.5,0.7-6,0.9s-5.2,0.2-8.1,0c-2.9-0.2-5-0.6-6.5-1.3
				c-0.9-0.4-1.6-0.9-2.2-1.5c-0.6-0.6-1.1-1.4-1.4-2.2c-0.3-0.8-0.5-1.5-0.6-2.1c-0.1-0.6-0.3-1.3-0.3-2.2
				c-0.1-0.9-0.1-1.4-0.1-1.5C435.3,195.5,435.2,184.4,435.2,164.5z"/>
			<path d="M468.8,182.5l-0.2-0.2c4.4-3.7,8.4-7.6,12.2-11.7c3.8-4.1,6.9-7.8,9.2-11.1c2.4-3.3,4.4-6.3,6-9c1.7-2.7,2.9-4.9,3.7-6.5
				c0.8-1.6,1.2-2.4,1.2-2.5c0.5-0.4,1.8-0.1,3.8,1c2.1,1,3.1,1.7,3.2,2.1c1.2,2.5,2.9,4.9,5.4,7.2c2.4,2.3,5.2,4.2,8.4,5.9
				c3.1,1.7,6.2,3.1,9.3,4.3c3,1.2,6.2,2.2,9.5,3.1c-4,1.2-7.8,3.1-11.4,5.8c-1-0.5-1.7-0.9-2.2-1.1c-0.5-0.3-1.4-0.8-2.8-1.7
				c-1.4-0.9-2.5-1.7-3.5-2.4c-1-0.8-2.1-1.8-3.6-3.1c-1.4-1.3-2.7-2.7-3.7-4.1c-1.1-1.4-2.2-3.1-3.3-5c-1.1-1.9-2.1-4-2.9-6.1
				c-3.3,5.1-7.2,10.2-11.9,15h10.2l4.9-4.4l4.2,4c0.5,1.2-0.4,1.9-2.7,2c-0.3,0-1,0-2.2,0h-15.9c-4.8,4.8-9.5,9-14.3,12.4
				C474.5,179.8,471,181.8,468.8,182.5z M482,184.7h0.4c1.5,1.8,2.5,3.4,3.1,5c0.6,1.5,0.7,3.5,0.5,5.8c-0.2,1.8-1.4,3.9-3.6,6.3
				c-2.2,2.4-4.2,4-6.1,4.8c-0.3-0.1-0.8-1-1.5-2.8c-0.7-1.8-1-3-1-3.7c0-0.2,0.3-0.4,0.8-0.6s1.1-0.7,1.9-1.4
				c0.8-0.7,1.6-1.6,2.3-2.7c0.7-1.2,1.2-2,1.5-2.5c0.3-0.5,0.6-1.4,0.9-2.8S481.8,186.9,482,184.7z M520.4,185
				c0.5,8.4,0.9,12.9,1.1,13.5c0.3,1.1,0.8,2.1,1.5,3.1c0.7,1,1.4,1.9,2,2.5c0.6,0.6,0.9,1,0.9,1c0.1,0.2,0,0.6-0.4,1.3
				c-0.3,0.6-1,1.3-1.9,2.1c-1,0.7-2.1,1.1-3.5,1.2c-1.4,0.1-5.5,0.3-12.1,0.3c-6.6,0.1-10.6,0-11.8-0.3c-0.9-0.1-1.9-0.9-3-2.4
				c-1.1-1.5-1.6-3.5-1.6-6.1v-12.7l-0.5-4.7c0-0.4,0.1-0.7,0.4-0.8c0.3-0.2,0.7-0.1,1.3,0.1l6,3.9l-1.1,1.5v10.9
				c0,0.9,0.1,1.6,0.2,2.3c0.1,0.6,0.3,1.1,0.5,1.4c0.2,0.3,0.4,0.6,0.7,0.8c0.3,0.2,0.5,0.3,0.6,0.4c0.2,0,0.3,0.1,0.5,0.1
				c1.6,0,4.3-0.2,8-0.5c3.7-0.3,6-0.7,6.9-1.3c0.2-0.1,0.5-0.4,0.7-0.7c0.2-0.3,0.5-0.8,0.7-1.4c0.2-0.6,0.4-1.2,0.6-1.8
				c0.2-0.6,0.4-1.3,0.6-2.2c0.2-0.9,0.4-1.7,0.6-2.3c0.1-0.6,0.3-1.5,0.5-2.6c0.2-1.1,0.4-1.9,0.5-2.4c0.1-0.5,0.2-1.3,0.4-2.4
				c0.2-1.1,0.3-1.7,0.4-2L520.4,185z M509.1,175.1l-15.3,0.6l-1.5-1.9l0.4-0.5c0.2-0.1,0.4-0.2,0.6-0.1c2.9,0.2,7.5,0.4,14,0.4h4.5
				c0.3-0.5,0.6-1.1,1-1.8c0.4-0.7,0.7-1.3,0.8-1.6c0.2-0.3,0.4-0.6,0.8-1c0.3-0.3,0.6-0.5,0.9-0.4c0.3,0.1,0.7,0.3,1.3,0.5
				c0.6,0.3,1.2,0.7,1.9,1.4c0.7,0.6,1.6,1.5,2.7,2.6c0,0-0.4,0.5-1.3,1.3c-0.9,0.8-2,1.8-3.3,3c-1.3,1.2-2.6,2.4-3.9,3.5
				c-1.3,1.2-2.4,2.3-3.3,3.2c-0.9,1-1.3,1.6-1.3,1.9c0,0.4,0.8,1.3,2.3,2.7c1.5,1.4,2.1,2.4,1.8,3c-0.2,0.8-1.1,1.9-2.7,3.4
				c-1.6,1.4-2.6,2.2-3.1,2.2c-0.3,0-0.5-0.5-0.8-1.6s-0.5-2.3-0.7-3.7c-0.3-1.4-0.6-2.4-0.9-2.9c-0.5-1-0.8-1.8-0.9-2.3
				c0-0.6,0.1-1.1,0.6-1.7c0.1,0,0.5-0.5,1.3-1.3c0.8-0.8,1.5-1.6,2.2-2.3c0.7-0.7,1.4-1.7,2.3-2.9c0.8-1.2,1.5-2.3,2.1-3.4H509.1z
				 M524.4,184.5c0.2,0,0.6,0.1,1,0.3c0.4,0.1,1.2,0.5,2.4,0.9c1.2,0.5,2.3,1,3.3,1.6c1,0.6,2.1,1.3,3.2,2.3c1.2,1,2,2,2.7,3
				c0.5,0.6,0.8,1.2,0.9,1.8c0.1,0.6,0.2,1.1,0.2,1.4c0,0.4-0.3,0.9-0.8,1.4c-0.5,0.6-0.9,1-1.2,1.2c-0.3,0.3-0.8,0.7-1.7,1.4
				c-0.9,0.7-1.5,1.2-1.8,1.4c-1,0.3-1.6,0.3-1.8-0.1c-0.3-0.4-0.3-1.1-0.2-2.1c0.1-1,0.2-1.6,0.2-1.9
				C530,192.8,527.9,188.5,524.4,184.5z"/>
			<path d="M570.4,160.8c-1.5-4.4-4-8.9-7.4-13.5c-1.4,2.3-4.2,5.8-8.4,10.6c-4.1,4.8-8.5,9.2-13,13l-0.2-0.1
				c6.6-8.7,12-18,16.1-27.9c0,0,0.1,0,0.2,0c0.1,0,0.3,0.1,0.5,0.2c0.3,0.1,0.5,0.3,0.8,0.4c0.2,0.1,0.5,0.3,0.9,0.6
				s0.6,0.4,0.9,0.6c0.3,0.2,0.6,0.4,0.9,0.6c0.3,0.2,0.6,0.4,0.8,0.5c0.2,0.1,0.4,0.3,0.6,0.4c0.2,0.1,0.3,0.2,0.3,0.3
				c1.4,0.7,3.4,2,6,3.9c2.5,1.9,4.1,3.3,4.7,4.4c0.3,1.4,0,2.9-0.9,4.3C572.2,160.6,571.3,161.1,570.4,160.8z M567.7,164.8l5.3,3.1
				l-1.9,2.7c0.2,10.7,0.2,16.2-0.1,16.3c-0.8,0.1-2.6,0.1-5.4,0h-10.6v6.9h11.4l3.7-3.6l3.6,4.9c0,0.3-2.5,0.4-7.4,0.4H555v7.8
				h11.4l4.5-4.5l3.8,6c0,0.1-0.5,0.2-1.6,0.3c-1.1,0-2.5,0-4.1,0c-1.7,0-2.6-0.1-2.7-0.1H555l-0.1,2.5c0,0.4-0.7,1.2-2.1,2.4
				c-1.4,1.2-2.7,1.9-4.1,2.1v-7.3c0-1.1,0.1-3.2,0.1-6.4s0-6.6,0-10.3c0-3.6,0-7.2,0-10.8c0-3.6,0.1-6.5,0.1-8.8
				c0.1-2.3,0.2-3.4,0.4-3.4c0.5,0.1,2.3,1.2,5.5,3.1h10l1.7-3.2C566.9,164.5,567.2,164.4,567.7,164.8z M555.1,185.3h9.7l-0.1-6.1
				h-9.6L555.1,185.3z M555.2,169.9l-0.1,7.6h9.6l-0.1-7.6H555.2z M562.8,159.9l2.4-1.4l2.2,2.4c0.1,0.2,0.2,0.4,0,0.6
				c-0.1,0.1-0.4,0.2-0.8,0.3c-0.4,0-0.8,0-1.1,0c-0.4,0-0.8,0-1.3,0c-0.5,0-0.9,0-1,0h-1.4l-5.4,0.1l-0.4-2.2
				c1,0.1,2.1,0.2,3.3,0.3H562.8z M610.8,157c0.3,0.2,0.4,0.6,0.2,1.2c0,0.1,0,0.2,0,0.2c0,0.1-0.1,0.2-0.2,0.4
				c-0.2,0.5-0.4,0.9-0.6,1.2c-0.2,0.3-0.5,0.5-0.9,0.8c-0.4,0.3-0.9,0.4-1.4,0.3c-3-0.3-6.1,0.1-9.3,1.1c0.1,0,0.2,0.1,0.2,0.1
				l5.3,3.1l-1.8,2.7c0.2,8.3,0.2,12.5-0.1,12.7c-0.8,0.1-2.6,0.1-5.5,0h-11.4l0.1,6.5h11.3l2.1-2.4c0.2-0.4,0.6-0.5,1.1-0.1
				l5.5,3.8l-2.7,3.3l0.6,11.5c0,0.8,0,1.2-0.1,1.3c-0.4,0.2-1.2,0.3-2.4,0.4c-1.2,0.1-2.3,0.1-3.5-0.1c-1-0.7-1.8-1.1-2.6-1.2
				l-9.1,0.1v1.7c0,0.3-0.4,1-1.3,2c-0.8,1-1.7,1.7-2.7,2.2c-0.5,0.1-1,0-1.3-0.2c-0.4-0.2-0.6-0.5-0.7-0.7
				c-0.1-0.2-0.2-0.3-0.2-0.4l0.1-5.8c0.1-1.7,0-7.7-0.3-18c-0.3-10.3-0.4-16.7-0.3-19.2c0,0-0.1,0-0.1,0c0,0,0,0-0.1,0
				c-0.8,0.4-1.5,0.4-2.2,0.1c-0.7-0.3-1.3-0.7-1.8-1.3c-0.5-0.6-0.6-0.9-0.4-1.1c0.4-0.3,0.9-1.3,1.6-2.9c0.7-1.6,1.2-2.7,1.4-3.5
				c0.4-1.6,0.5-2.8,0.5-3.7c-0.1-0.9-0.2-1.7-0.4-2.5s-0.3-1.3-0.3-1.4c0-0.4,0.1-0.6,0.3-0.5c0.1,0,0.4,0.2,0.8,0.5
				c2.5,2.1,4.2,3.9,5,5.4h5.1v-5c-0.2-3-0.4-4.7-0.6-5.1c0-0.5,0.1-0.8,0.3-0.8c0.3-0.1,0.6-0.1,1,0c0.1,0,0.8,0.1,2,0.4
				c1.2,0.2,2.3,0.5,3.3,0.7l1.6,0.4L595,149l-0.1,5.8h6c0.4-0.3,0.8-1.1,1.3-2.2c0.5-1.1,0.9-1.8,1.2-2.2c0.5-0.5,1-0.5,1.4,0
				c0.2,0.3,0.6,0.9,1.2,1.7c0.6,0.8,1.2,1.7,2,2.5C608.8,155.5,609.7,156.3,610.8,157z M596.5,162.7c0,0,0.3-0.4,0.8-1
				c0.5-0.6,1-1.2,1.5-1.8c0.5-0.6,0.9-1.3,1.2-2c0.3-0.7,0.3-1.2,0.1-1.5h-16.7c-0.2,0.9-0.6,1.9-1.1,3.1c-0.9,2.2-1.4,3.4-1.5,3.7
				l4,2.4H596l1.7-3.2c-0.4,0.1-0.8,0.3-1,0.4L596.5,162.7z M585.4,179.1h10.4l-0.1-11.7h-10.5L585.4,179.1z M596.2,189h-10.7
				l0.2,13.2h10.7L596.2,189z"/>
		</g>
		<g>
			<path d="M309,215.5c0-1-0.1-2.1-0.1-3.1c0.3,0,0.6,0.1,0.9,0.1c0.3,0,0.7,0,1.1,0c0.4,0,0.8,0,1.1,0c0.3,0,0.6-0.1,0.9-0.1
				c-0.1,1-0.1,2.1-0.1,3.1s0,2.2,0,3.5v3.3c0,0.9,0,1.8,0,2.6c0,0.8,0,1.6,0,2.2c0.9,0,1.8,0,2.7-0.1c0.9,0,1.8-0.1,2.8-0.2
				c0,0.2-0.1,0.3-0.1,0.5c0,0.1,0,0.3,0,0.6s0,0.5,0,0.6c0,0.1,0,0.3,0.1,0.4c-0.4,0-1,0-1.6,0c-0.6,0-1.5,0-2.6,0
				c-1,0-1.8,0-2.4,0c-0.6,0-1.1,0-1.4,0s-0.6,0-0.8,0c-0.2,0-0.3,0-0.5,0c0.1-1,0.1-2,0.1-3c0-1,0-2.2,0-3.5V219
				C309.1,217.7,309.1,216.5,309,215.5z"/>
			<path d="M320.4,212.8c0-0.5,0.2-1,0.6-1.3c0.4-0.4,0.8-0.6,1.3-0.6s1,0.2,1.3,0.6c0.4,0.4,0.6,0.8,0.6,1.3c0,0.5-0.2,1-0.6,1.3
				c-0.4,0.4-0.8,0.6-1.3,0.6s-1-0.2-1.3-0.6C320.6,213.8,320.4,213.3,320.4,212.8z M320.7,222.6c0-1,0-1.9,0-2.7
				c0-0.9-0.1-1.7-0.2-2.6c0.2,0,0.5,0.1,0.8,0.1c0.3,0,0.6,0,1,0c0.8,0,1.4,0,1.8-0.1c-0.1,0.9-0.1,1.7-0.2,2.6c0,0.9,0,1.8,0,2.7
				v1c0,1,0,1.9,0,2.8c0,0.9,0.1,1.7,0.2,2.5c-0.2,0-0.5,0-0.8,0s-0.7,0-1,0s-0.7,0-1,0c-0.3,0-0.6,0-0.8,0c0.1-0.8,0.1-1.6,0.2-2.5
				c0-0.9,0-1.8,0-2.8V222.6z"/>
			<path d="M335.8,223.5c-0.1,1.8-0.3,3.6-0.4,5.4c-0.2,0-0.4,0-0.6,0s-0.4,0-0.6,0c-0.2,0-0.4,0-0.6,0s-0.4,0-0.6,0
				c0.5-2.8,1-5.5,1.4-8.2c0.4-2.7,0.8-5.5,1.1-8.3c0.2,0,0.3,0.1,0.5,0.1c0.2,0,0.3,0,0.5,0c0.1,0,0.3,0,0.5,0
				c0.2,0,0.3-0.1,0.5-0.1c0.4,1,0.9,1.9,1.4,2.9s0.9,2,1.4,3c0.5,1,0.9,1.9,1.4,2.9c0.5,0.9,0.9,1.8,1.4,2.7c1-1.8,1.9-3.7,2.9-5.6
				s1.9-3.9,2.7-5.8c0.4,0.1,0.7,0.1,1,0.1c0.3,0,0.6,0,1-0.1c0.2,1.4,0.3,2.9,0.5,4.4c0.2,1.6,0.4,3.1,0.5,4.6
				c0.2,1.5,0.4,2.9,0.5,4.2c0.2,1.3,0.3,2.4,0.5,3.2c-0.3,0-0.6,0-1,0c-0.3,0-0.7,0-1,0s-0.6,0-1,0s-0.7,0-1,0
				c-0.1-1.6-0.2-3.4-0.4-5.4c-0.2-1.9-0.4-3.8-0.6-5.7h0c-0.9,1.9-1.8,3.7-2.7,5.6c-0.9,1.8-1.8,3.7-2.6,5.5c-0.1,0-0.2,0-0.2,0
				c-0.1,0-0.1,0-0.2,0s-0.2,0-0.2,0c-0.1,0-0.1,0-0.2,0c-0.9-1.8-1.7-3.6-2.6-5.4s-1.7-3.6-2.7-5.4h0
				C336.1,219.9,335.9,221.7,335.8,223.5z"/>
			<path d="M358,223.1c0,0.6,0.1,1.2,0.2,1.8c0.1,0.6,0.3,1,0.6,1.5c0.3,0.4,0.6,0.7,1,1c0.4,0.2,0.9,0.3,1.4,0.3
				c1.1,0,2.1-0.4,3-1.1l0.3,0.2l-0.5,1.3c-0.4,0.3-0.9,0.5-1.4,0.7c-0.6,0.2-1.3,0.3-2.2,0.3c-0.8,0-1.5-0.1-2.2-0.3
				c-0.7-0.2-1.3-0.6-1.9-1.1c-0.5-0.5-1-1.1-1.3-1.9c-0.3-0.8-0.5-1.7-0.5-2.7c0-1,0.1-1.9,0.4-2.7c0.3-0.8,0.7-1.4,1.2-1.9
				c0.5-0.5,1.1-0.9,1.8-1.2s1.4-0.4,2.2-0.4c1.6,0,2.8,0.5,3.6,1.4s1.3,2.2,1.3,3.9v0.5c0,0.1,0,0.2,0,0.3H358z M361.7,222
				c0-1.2-0.2-2.2-0.4-2.9c-0.3-0.7-0.7-1.1-1.3-1.1c-0.4,0-0.6,0.1-0.9,0.4s-0.4,0.5-0.6,0.9c-0.1,0.4-0.3,0.8-0.3,1.3
				s-0.1,0.9-0.1,1.4H361.7z"/>
			<path d="M367.1,212.8c0-0.5,0.2-1,0.6-1.3s0.8-0.6,1.3-0.6c0.5,0,1,0.2,1.3,0.6s0.6,0.8,0.6,1.3c0,0.5-0.2,1-0.6,1.3
				c-0.4,0.4-0.8,0.6-1.3,0.6c-0.5,0-1-0.2-1.3-0.6C367.2,213.8,367.1,213.3,367.1,212.8z M367.3,222.6c0-1,0-1.9,0-2.7
				c0-0.9-0.1-1.7-0.2-2.6c0.2,0,0.5,0.1,0.8,0.1c0.3,0,0.6,0,1,0c0.8,0,1.4,0,1.8-0.1c-0.1,0.9-0.1,1.7-0.2,2.6c0,0.9,0,1.8,0,2.7
				v1c0,1,0,1.9,0,2.8c0,0.9,0.1,1.7,0.2,2.5c-0.2,0-0.5,0-0.8,0s-0.7,0-1,0c-0.4,0-0.7,0-1,0c-0.3,0-0.6,0-0.8,0
				c0.1-0.8,0.1-1.6,0.2-2.5c0-0.9,0-1.8,0-2.8V222.6z"/>
			<path d="M379.3,222.2v2.6h-6v-2.6H379.3z"/>
			<path d="M382.3,226.6c0.2,0.2,0.3,0.4,0.6,0.6c0.2,0.2,0.5,0.3,0.8,0.4c0.3,0.1,0.7,0.2,1.1,0.2c0.6,0,1-0.1,1.3-0.4
				c0.3-0.3,0.5-0.6,0.5-0.9c0-0.4-0.1-0.7-0.4-0.9c-0.3-0.2-0.6-0.4-1-0.6s-0.9-0.4-1.3-0.6c-0.5-0.2-0.9-0.4-1.3-0.7
				s-0.7-0.7-1-1.1c-0.3-0.4-0.4-1-0.4-1.7c0-0.7,0.1-1.3,0.4-1.7s0.6-0.9,1-1.2c0.4-0.3,0.9-0.5,1.4-0.7c0.5-0.2,1-0.2,1.5-0.2
				c0.7,0,1.3,0.1,1.8,0.3c0.5,0.2,1.1,0.5,1.6,0.8c-0.1,0.3-0.3,0.7-0.4,1c-0.1,0.4-0.2,0.7-0.2,1.1h-0.7c0-0.2-0.1-0.4-0.2-0.6
				c-0.1-0.2-0.3-0.5-0.5-0.7c-0.2-0.2-0.4-0.4-0.7-0.5c-0.3-0.1-0.6-0.2-1-0.2c-0.5,0-0.9,0.1-1.2,0.4s-0.5,0.6-0.5,1
				c0,0.4,0.1,0.7,0.4,0.9c0.3,0.2,0.6,0.4,1,0.6c0.4,0.2,0.9,0.4,1.4,0.5s1,0.4,1.4,0.7c0.4,0.3,0.8,0.6,1,1.1
				c0.3,0.4,0.4,1,0.4,1.7s-0.1,1.3-0.4,1.8c-0.3,0.5-0.6,0.9-1,1.2c-0.4,0.3-0.9,0.6-1.5,0.7c-0.6,0.1-1.1,0.2-1.7,0.2
				c-0.7,0-1.4-0.1-1.9-0.3s-1-0.4-1.4-0.6c0.2-0.8,0.3-1.5,0.4-2.3h0.6C382,226.2,382.2,226.4,382.3,226.6z"/>
			<path d="M391,214.7c0-1.3-0.1-2.6-0.1-4c0.2,0,0.5,0.1,0.8,0.1c0.3,0,0.7,0,1,0c0.4,0,0.7,0,1,0c0.3,0,0.6-0.1,0.8-0.1
				c-0.1,1.3-0.1,2.7-0.1,4c0,1.3,0,2.8,0,4.3l0,0c0.4-0.7,0.9-1.2,1.5-1.6s1.3-0.6,2.1-0.6c1.2,0,2.1,0.3,2.8,1
				c0.6,0.7,1,1.8,1,3.4c0,0.8,0,1.5,0,2.2s0,1.2,0,1.9c0,0.5,0,1.1,0,1.7c0,0.6,0.1,1.2,0.1,1.7c-0.2,0-0.5,0-0.8,0
				c-0.3,0-0.7,0-1,0s-0.7,0-1,0s-0.6,0-0.8,0c0.1-0.8,0.2-1.8,0.2-2.9c0-1.1,0-2.4,0-3.9c0-1-0.2-1.7-0.5-2.2
				c-0.3-0.5-0.8-0.7-1.5-0.7c-0.7,0-1.2,0.3-1.6,0.9s-0.5,1.5-0.5,2.6v1c0,0.2,0,0.5,0,1c0,0.4,0,0.9,0,1.4c0,0.5,0,1,0.1,1.5
				c0,0.5,0.1,1,0.1,1.4c-0.2,0-0.5,0-0.8,0s-0.7,0-1,0c-0.4,0-0.7,0-1,0c-0.3,0-0.6,0-0.8,0c0.1-1.3,0.1-2.6,0.1-3.9
				c0-1.3,0-2.8,0-4.3v-1.6C391.1,217.5,391.1,216.1,391,214.7z"/>
			<path d="M411.6,227.1c-0.4,0.7-1,1.2-1.6,1.5c-0.6,0.3-1.3,0.5-2.1,0.5c-1.2,0-2.1-0.3-2.8-1c-0.6-0.7-1-1.8-1-3.3
				c0-0.8,0-1.5,0-2.2s0-1.2,0-1.9c0-0.5,0-1.1,0-1.7c0-0.6-0.1-1.2-0.1-1.8c0.2,0,0.5,0.1,0.8,0.1c0.3,0,0.7,0,1,0c0.4,0,0.7,0,1,0
				c0.3,0,0.6-0.1,0.8-0.1c-0.1,0.9-0.2,1.9-0.2,3c0,1.1,0,2.4,0,3.9c0,1,0.2,1.7,0.5,2.2c0.3,0.5,0.8,0.7,1.5,0.7
				c0.7,0,1.2-0.3,1.6-0.9s0.5-1.5,0.5-2.6v-1c0-1,0-1.9,0-2.7c0-0.9-0.1-1.7-0.2-2.6c0.4,0.1,1,0.1,1.8,0.1c0.4,0,0.7,0,1,0
				c0.3,0,0.6-0.1,0.8-0.1c-0.1,0.9-0.1,1.7-0.2,2.6c0,0.9,0,1.8,0,2.7v1c0,1,0,1.9,0,2.8c0,0.9,0.1,1.7,0.2,2.5c-0.3,0-0.6,0-0.9,0
				s-0.6,0-0.9,0s-0.6,0-0.9,0c-0.3,0-0.6,0-0.9,0L411.6,227.1L411.6,227.1z"/>
			<path d="M426.5,223.5c-0.1,1.8-0.3,3.6-0.4,5.4c-0.2,0-0.4,0-0.6,0c-0.2,0-0.4,0-0.6,0c-0.2,0-0.4,0-0.6,0c-0.2,0-0.4,0-0.6,0
				c0.5-2.8,1-5.5,1.4-8.2c0.4-2.7,0.8-5.5,1.1-8.3c0.2,0,0.3,0.1,0.5,0.1c0.2,0,0.3,0,0.5,0c0.1,0,0.3,0,0.5,0
				c0.2,0,0.3-0.1,0.5-0.1c0.4,1,0.9,1.9,1.4,2.9c0.5,1,0.9,2,1.4,3c0.5,1,0.9,1.9,1.4,2.9c0.5,0.9,0.9,1.8,1.4,2.7
				c1-1.8,1.9-3.7,2.9-5.6s1.9-3.9,2.7-5.8c0.4,0.1,0.7,0.1,1,0.1c0.3,0,0.6,0,1-0.1c0.2,1.4,0.3,2.9,0.5,4.4
				c0.2,1.6,0.4,3.1,0.5,4.6c0.2,1.5,0.4,2.9,0.5,4.2c0.2,1.3,0.3,2.4,0.5,3.2c-0.3,0-0.6,0-1,0c-0.3,0-0.7,0-1,0s-0.6,0-1,0
				s-0.7,0-1,0c-0.1-1.6-0.2-3.4-0.4-5.4c-0.2-1.9-0.4-3.8-0.6-5.7h0c-0.9,1.9-1.8,3.7-2.7,5.6c-0.9,1.8-1.8,3.7-2.6,5.5
				c-0.1,0-0.2,0-0.2,0c-0.1,0-0.1,0-0.2,0s-0.2,0-0.2,0c-0.1,0-0.1,0-0.2,0c-0.9-1.8-1.7-3.6-2.6-5.4c-0.9-1.8-1.7-3.6-2.7-5.4h0
				C426.8,219.9,426.6,221.7,426.5,223.5z"/>
			<path d="M448.7,223.1c0,0.6,0.1,1.2,0.2,1.8c0.1,0.6,0.3,1,0.6,1.5c0.3,0.4,0.6,0.7,1,1c0.4,0.2,0.9,0.3,1.4,0.3
				c1.1,0,2.1-0.4,3-1.1l0.3,0.2l-0.5,1.3c-0.4,0.3-0.9,0.5-1.4,0.7c-0.6,0.2-1.3,0.3-2.2,0.3c-0.8,0-1.5-0.1-2.2-0.3
				s-1.3-0.6-1.9-1.1c-0.5-0.5-1-1.1-1.3-1.9c-0.3-0.8-0.5-1.7-0.5-2.7c0-1,0.1-1.9,0.4-2.7c0.3-0.8,0.7-1.4,1.2-1.9
				c0.5-0.5,1.1-0.9,1.8-1.2c0.7-0.3,1.4-0.4,2.2-0.4c1.6,0,2.8,0.5,3.6,1.4s1.3,2.2,1.3,3.9v0.5c0,0.1,0,0.2,0,0.3H448.7z
				 M452.4,222c0-1.2-0.2-2.2-0.4-2.9c-0.3-0.7-0.7-1.1-1.3-1.1c-0.4,0-0.6,0.1-0.9,0.4s-0.4,0.5-0.6,0.9c-0.1,0.4-0.3,0.8-0.3,1.3
				c-0.1,0.5-0.1,0.9-0.1,1.4H452.4z"/>
			<path d="M460.9,219.1c0.4-0.7,1-1.2,1.6-1.6c0.6-0.4,1.3-0.6,2.1-0.6c0.7,0,1.3,0.2,1.9,0.6c0.5,0.4,0.9,1,1.2,1.7
				c0.5-0.7,1-1.3,1.7-1.7c0.6-0.4,1.3-0.6,2-0.6c1.2,0,2.1,0.3,2.8,1c0.6,0.7,1,1.8,1,3.4c0,0.8,0,1.5,0,2.2s0,1.2,0,1.9
				c0,0.5,0,1.1,0,1.7c0,0.6,0.1,1.2,0.1,1.7c-0.2,0-0.5,0-0.8,0s-0.7,0-1,0c-0.4,0-0.7,0-1,0c-0.3,0-0.6,0-0.8,0
				c0.1-0.8,0.2-1.8,0.2-2.9c0-1.1,0-2.4,0-3.9c0-1-0.2-1.7-0.5-2.2c-0.3-0.5-0.8-0.7-1.4-0.7c-0.4,0-0.7,0.1-0.9,0.3
				s-0.4,0.4-0.6,0.7c-0.1,0.3-0.2,0.6-0.3,0.9s-0.1,0.6-0.1,0.9v1.7c0,1,0,1.9,0,2.8c0,0.9,0.1,1.7,0.2,2.5c-0.2,0-0.5,0-0.8,0
				c-0.3,0-0.7,0-1,0c-0.4,0-0.7,0-1,0c-0.3,0-0.6,0-0.8,0c0.1-0.8,0.1-1.6,0.2-2.5c0-0.9,0-1.8,0-2.8v-1.5c0-1-0.1-1.7-0.4-2.2
				c-0.2-0.5-0.7-0.8-1.4-0.8c-0.7,0-1.2,0.3-1.6,0.9s-0.5,1.5-0.5,2.6v1c0,1,0,1.9,0,2.8c0,0.9,0.1,1.7,0.2,2.5c-0.2,0-0.5,0-0.8,0
				c-0.3,0-0.7,0-1,0s-0.7,0-1,0c-0.3,0-0.6,0-0.8,0c0.1-0.8,0.1-1.6,0.2-2.5c0-0.9,0-1.8,0-2.8v-1c0-1,0-1.9,0-2.7
				c0-0.9-0.1-1.7-0.2-2.6c0.3,0,0.6,0.1,0.9,0.1c0.3,0,0.6,0,0.9,0s0.6,0,0.9,0c0.3,0,0.6-0.1,0.9-0.1L460.9,219.1L460.9,219.1z"/>
			<path d="M477.1,223.4c0-1.1,0.2-2,0.5-2.8c0.3-0.8,0.8-1.5,1.3-2s1.2-0.9,1.9-1.2s1.4-0.4,2.2-0.4c1.9,0,3.3,0.5,4.3,1.6
				c1,1.1,1.5,2.5,1.5,4.3c0,1-0.1,1.9-0.4,2.6c-0.3,0.8-0.7,1.5-1.2,2c-0.5,0.6-1.1,1-1.9,1.2c-0.7,0.3-1.5,0.4-2.4,0.4
				c-0.7,0-1.4-0.1-2.1-0.3c-0.7-0.2-1.3-0.5-1.9-1c-0.6-0.5-1-1.1-1.4-1.8C477.3,225.4,477.1,224.5,477.1,223.4z M485.3,222.5
				c0-1.4-0.2-2.5-0.5-3.3c-0.4-0.8-0.9-1.2-1.8-1.2c-0.7,0-1.3,0.4-1.7,1.3c-0.4,0.9-0.6,2.2-0.6,4.1c0,0.7,0,1.3,0.1,1.9
				s0.2,1.1,0.4,1.5c0.2,0.4,0.4,0.8,0.7,1s0.7,0.4,1.1,0.4C484.5,228.2,485.3,226.3,485.3,222.5z"/>
			<path d="M494.4,220.3c0.4-1.1,0.9-1.9,1.5-2.4c0.6-0.5,1.3-0.8,2.1-0.8c0.1,0,0.1,0,0.2,0c0.1,0,0.1,0,0.2,0
				c0,0.2-0.1,0.5-0.1,0.8c0,0.3,0,0.6,0,1v0.8c0,0.1,0,0.3,0,0.4c0,0.1,0,0.3,0,0.4l-0.2,0.2c-0.2-0.1-0.3-0.2-0.5-0.2
				c-0.2-0.1-0.4-0.1-0.7-0.1c-0.7,0-1.3,0.2-1.7,0.7s-0.6,1-0.6,1.7v1c0,1,0,1.9,0,2.8c0,0.9,0.1,1.7,0.2,2.5c-0.2,0-0.5,0-0.8,0
				c-0.3,0-0.7,0-1,0c-0.4,0-0.7,0-1,0c-0.3,0-0.6,0-0.8,0c0.1-0.8,0.1-1.6,0.2-2.5c0-0.9,0-1.8,0-2.8v-1c0-1,0-1.9,0-2.7
				c0-0.9-0.1-1.7-0.2-2.6c0.3,0,0.5,0.1,0.8,0.1c0.3,0,0.6,0,0.8,0c0.3,0,0.5,0,0.8,0c0.3,0,0.6-0.1,0.8-0.1L494.4,220.3
				L494.4,220.3z"/>
			<path d="M500.4,212.8c0-0.5,0.2-1,0.6-1.3s0.8-0.6,1.3-0.6s1,0.2,1.3,0.6s0.6,0.8,0.6,1.3c0,0.5-0.2,1-0.6,1.3
				c-0.4,0.4-0.8,0.6-1.3,0.6s-1-0.2-1.3-0.6C500.6,213.8,500.4,213.3,500.4,212.8z M500.7,222.6c0-1,0-1.9,0-2.7
				c0-0.9-0.1-1.7-0.2-2.6c0.2,0,0.5,0.1,0.8,0.1c0.3,0,0.6,0,1,0c0.8,0,1.4,0,1.8-0.1c-0.1,0.9-0.1,1.7-0.2,2.6c0,0.9,0,1.8,0,2.7
				v1c0,1,0,1.9,0,2.8c0,0.9,0.1,1.7,0.2,2.5c-0.2,0-0.5,0-0.8,0c-0.3,0-0.7,0-1,0s-0.7,0-1,0c-0.3,0-0.6,0-0.8,0
				c0.1-0.8,0.1-1.6,0.2-2.5c0-0.9,0-1.8,0-2.8V222.6z"/>
			<path d="M507.1,218.7c0.7-0.5,1.4-1,2.2-1.2c0.8-0.3,1.5-0.4,2.3-0.4c0.6,0,1.2,0.1,1.8,0.2c0.5,0.1,1,0.4,1.4,0.7
				c0.4,0.3,0.7,0.7,0.9,1.2c0.2,0.5,0.3,1.1,0.3,1.8c0,1,0,2,0,2.8c0,0.9,0,1.7,0,2.6c0,0.4,0,0.7,0.1,0.9c0.1,0.2,0.1,0.4,0.3,0.5
				c0.1,0.1,0.3,0.2,0.4,0.2c0.2,0,0.4,0,0.6,0v0.6c-0.5,0.2-0.9,0.3-1.2,0.4c-0.3,0.1-0.7,0.1-1,0.1c-0.6,0-1.1-0.1-1.4-0.4
				s-0.6-0.7-0.8-1.2c-0.4,0.5-0.8,0.9-1.3,1.2s-1.1,0.5-1.8,0.5c-0.6,0-1.1-0.1-1.6-0.2c-0.4-0.2-0.8-0.4-1.1-0.7
				c-0.3-0.3-0.5-0.6-0.6-1c-0.1-0.4-0.2-0.8-0.2-1.1c0-0.5,0.1-1,0.3-1.4s0.4-0.7,0.7-1c0.3-0.3,0.7-0.5,1.1-0.7
				c0.4-0.2,0.9-0.3,1.5-0.5c0.7-0.2,1.2-0.3,1.6-0.4c0.4-0.1,0.7-0.2,0.9-0.4c0.2-0.1,0.3-0.3,0.4-0.4c0.1-0.1,0.1-0.3,0.1-0.5
				c0-0.6-0.2-1.1-0.6-1.5c-0.4-0.4-1-0.6-1.7-0.6c-0.3,0-0.6,0-0.8,0.1c-0.3,0.1-0.6,0.2-0.8,0.3s-0.5,0.3-0.7,0.4
				s-0.4,0.3-0.5,0.5h-0.2L507.1,218.7z M512.7,225.2c0-0.7,0-1.2,0-1.6s0-0.7,0-0.9c-0.3,0.2-0.7,0.3-1.1,0.5s-0.7,0.3-1,0.5
				c-0.3,0.2-0.6,0.4-0.8,0.8c-0.2,0.3-0.3,0.8-0.3,1.4c0,0.6,0.1,1,0.4,1.4c0.2,0.3,0.6,0.5,1,0.5c0.5,0,1-0.2,1.3-0.6
				C512.6,226.6,512.7,226,512.7,225.2z"/>
			<path d="M519.3,214.7c0-1.3-0.1-2.6-0.1-4c0.2,0,0.5,0.1,0.8,0.1c0.3,0,0.7,0,1,0c0.4,0,0.7,0,1,0c0.3,0,0.6-0.1,0.8-0.1
				c-0.1,1.3-0.1,2.7-0.1,4c0,1.3,0,2.8,0,4.3v1.6c0,1.6,0,3,0,4.3c0,1.3,0.1,2.6,0.1,3.9c-0.2,0-0.5,0-0.8,0s-0.7,0-1,0
				c-0.4,0-0.7,0-1,0c-0.3,0-0.6,0-0.8,0c0.1-1.3,0.1-2.6,0.1-3.9c0-1.3,0-2.8,0-4.3v-1.6C519.4,217.5,519.4,216.1,519.3,214.7z"/>
			<path d="M544.9,214.2c-0.8-0.4-1.7-0.7-2.8-0.7c-0.7,0-1.5,0.2-2.2,0.5c-0.7,0.3-1.4,0.8-1.9,1.4c-0.6,0.6-1,1.4-1.4,2.3
				c-0.4,0.9-0.5,2-0.5,3.3c0,1,0.1,1.8,0.4,2.7c0.3,0.8,0.6,1.5,1.1,2.1c0.5,0.6,1.1,1.1,1.8,1.4c0.7,0.3,1.5,0.5,2.5,0.5
				c0.2,0,0.4,0,0.7,0c0.3,0,0.5-0.1,0.8-0.1s0.5-0.1,0.7-0.1c0.2-0.1,0.4-0.1,0.5-0.2c0-0.2,0.1-0.4,0.1-0.7c0-0.3,0-0.6,0-1
				c0-1.3,0-2.3-0.1-2.9c0-0.6-0.1-1-0.1-1.3c0.2,0,0.4,0.1,0.6,0.1c0.3,0,0.6,0,1.1,0c0.6,0,1,0,1.3,0c0.3,0,0.5-0.1,0.7-0.1
				c0,0.1-0.1,0.3-0.1,0.6c0,0.3,0,0.6-0.1,1c0,0.4,0,0.8,0,1.2c0,0.4,0,0.8,0,1.2v0.8c0,0.4,0,0.8,0,1.1c0,0.3,0,0.6,0.1,0.7
				c-1.1,0.3-2.1,0.5-3.2,0.7c-1.1,0.2-2.1,0.3-3.2,0.3c-1.4,0-2.6-0.2-3.8-0.5c-1.2-0.4-2.2-0.9-3-1.6c-0.8-0.7-1.5-1.5-2-2.5
				c-0.5-1-0.7-2.1-0.7-3.3c0-1.5,0.3-2.9,0.8-4c0.5-1.1,1.2-2.1,2.1-2.9c0.9-0.8,1.9-1.3,3.2-1.7s2.5-0.6,3.9-0.6
				c1.2,0,2.3,0.1,3.2,0.4c0.9,0.2,1.8,0.6,2.6,1.1c-0.1,0.4-0.3,0.8-0.4,1.2c-0.1,0.4-0.2,0.8-0.3,1.2h-0.3
				C546.3,215.2,545.7,214.6,544.9,214.2z"/>
			<path d="M551.1,218.7c0.7-0.5,1.4-1,2.2-1.2c0.8-0.3,1.5-0.4,2.3-0.4c0.6,0,1.2,0.1,1.8,0.2c0.5,0.1,1,0.4,1.4,0.7
				c0.4,0.3,0.7,0.7,0.9,1.2c0.2,0.5,0.3,1.1,0.3,1.8c0,1,0,2,0,2.8c0,0.9,0,1.7,0,2.6c0,0.4,0,0.7,0.1,0.9c0.1,0.2,0.1,0.4,0.3,0.5
				c0.1,0.1,0.3,0.2,0.4,0.2c0.2,0,0.4,0,0.6,0v0.6c-0.5,0.2-0.9,0.3-1.2,0.4c-0.3,0.1-0.7,0.1-1,0.1c-0.6,0-1.1-0.1-1.4-0.4
				s-0.6-0.7-0.8-1.2c-0.4,0.5-0.8,0.9-1.3,1.2s-1.1,0.5-1.8,0.5c-0.6,0-1.1-0.1-1.6-0.2c-0.4-0.2-0.8-0.4-1.1-0.7
				c-0.3-0.3-0.5-0.6-0.6-1c-0.1-0.4-0.2-0.8-0.2-1.1c0-0.5,0.1-1,0.3-1.4s0.4-0.7,0.7-1c0.3-0.3,0.7-0.5,1.1-0.7
				c0.4-0.2,0.9-0.3,1.5-0.5c0.7-0.2,1.2-0.3,1.6-0.4c0.4-0.1,0.7-0.2,0.9-0.4c0.2-0.1,0.3-0.3,0.4-0.4c0.1-0.1,0.1-0.3,0.1-0.5
				c0-0.6-0.2-1.1-0.6-1.5c-0.4-0.4-1-0.6-1.7-0.6c-0.3,0-0.6,0-0.8,0.1c-0.3,0.1-0.6,0.2-0.8,0.3s-0.5,0.3-0.7,0.4
				s-0.4,0.3-0.5,0.5h-0.2L551.1,218.7z M556.8,225.2c0-0.7,0-1.2,0-1.6s0-0.7,0-0.9c-0.3,0.2-0.7,0.3-1.1,0.5s-0.7,0.3-1,0.5
				c-0.3,0.2-0.6,0.4-0.8,0.8c-0.2,0.3-0.3,0.8-0.3,1.4c0,0.6,0.1,1,0.4,1.4c0.2,0.3,0.6,0.5,1,0.5c0.5,0,1-0.2,1.3-0.6
				C556.6,226.6,556.8,226,556.8,225.2z"/>
			<path d="M563.4,214.7c0-1.3-0.1-2.6-0.1-4c0.2,0,0.5,0.1,0.8,0.1c0.3,0,0.7,0,1,0c0.4,0,0.7,0,1,0c0.3,0,0.6-0.1,0.8-0.1
				c-0.1,1.3-0.1,2.7-0.1,4c0,1.3,0,2.8,0,4.3v1.6c0,1.6,0,3,0,4.3c0,1.3,0.1,2.6,0.1,3.9c-0.2,0-0.5,0-0.8,0s-0.7,0-1,0
				c-0.4,0-0.7,0-1,0c-0.3,0-0.6,0-0.8,0c0.1-1.3,0.1-2.6,0.1-3.9c0-1.3,0-2.8,0-4.3v-1.6C563.4,217.5,563.4,216.1,563.4,214.7z"/>
			<path d="M570,214.7c0-1.3-0.1-2.6-0.1-4c0.2,0,0.5,0.1,0.8,0.1c0.3,0,0.7,0,1,0c0.4,0,0.7,0,1,0c0.3,0,0.6-0.1,0.8-0.1
				c-0.1,1.3-0.1,2.7-0.1,4c0,1.3,0,2.8,0,4.3v1.6c0,1.6,0,3,0,4.3c0,1.3,0.1,2.6,0.1,3.9c-0.2,0-0.5,0-0.8,0s-0.7,0-1,0
				c-0.4,0-0.7,0-1,0c-0.3,0-0.6,0-0.8,0c0.1-1.3,0.1-2.6,0.1-3.9c0-1.3,0-2.8,0-4.3v-1.6C570.1,217.5,570.1,216.1,570,214.7z"/>
			<path d="M579.4,223.1c0,0.6,0.1,1.2,0.2,1.8c0.1,0.6,0.3,1,0.6,1.5c0.3,0.4,0.6,0.7,1,1c0.4,0.2,0.9,0.3,1.4,0.3
				c1.1,0,2.1-0.4,3-1.1l0.3,0.2l-0.5,1.3c-0.4,0.3-0.9,0.5-1.4,0.7c-0.6,0.2-1.3,0.3-2.2,0.3c-0.8,0-1.5-0.1-2.2-0.3
				s-1.3-0.6-1.9-1.1c-0.5-0.5-1-1.1-1.3-1.9c-0.3-0.8-0.5-1.7-0.5-2.7c0-1,0.1-1.9,0.4-2.7c0.3-0.8,0.7-1.4,1.2-1.9
				c0.5-0.5,1.1-0.9,1.8-1.2c0.7-0.3,1.4-0.4,2.2-0.4c1.6,0,2.8,0.5,3.6,1.4s1.3,2.2,1.3,3.9v0.5c0,0.1,0,0.2,0,0.3H579.4z
				 M583.1,222c0-1.2-0.2-2.2-0.4-2.9c-0.3-0.7-0.7-1.1-1.3-1.1c-0.4,0-0.6,0.1-0.9,0.4s-0.4,0.5-0.6,0.9c-0.1,0.4-0.3,0.8-0.3,1.3
				c-0.1,0.5-0.1,0.9-0.1,1.4H583.1z"/>
			<path d="M591.7,220.3c0.4-1.1,0.9-1.9,1.5-2.4c0.6-0.5,1.3-0.8,2.1-0.8c0.1,0,0.1,0,0.2,0c0.1,0,0.1,0,0.2,0
				c0,0.2-0.1,0.5-0.1,0.8c0,0.3,0,0.6,0,1v0.8c0,0.1,0,0.3,0,0.4c0,0.1,0,0.3,0,0.4l-0.2,0.2c-0.2-0.1-0.3-0.2-0.5-0.2
				c-0.2-0.1-0.4-0.1-0.7-0.1c-0.7,0-1.3,0.2-1.7,0.7s-0.6,1-0.6,1.7v1c0,1,0,1.9,0,2.8c0,0.9,0.1,1.7,0.2,2.5c-0.2,0-0.5,0-0.8,0
				c-0.3,0-0.7,0-1,0c-0.4,0-0.7,0-1,0c-0.3,0-0.6,0-0.8,0c0.1-0.8,0.1-1.6,0.2-2.5c0-0.9,0-1.8,0-2.8v-1c0-1,0-1.9,0-2.7
				c0-0.9-0.1-1.7-0.2-2.6c0.3,0,0.5,0.1,0.8,0.1c0.3,0,0.6,0,0.8,0c0.3,0,0.5,0,0.8,0c0.3,0,0.6-0.1,0.8-0.1L591.7,220.3
				L591.7,220.3z"/>
			<path d="M603.2,224.9c0.3-0.7,0.6-1.4,0.8-2.1c0.2-0.6,0.5-1.2,0.7-1.8s0.4-1.2,0.6-1.8c0.2-0.6,0.4-1.2,0.6-1.9
				c0.2,0,0.3,0.1,0.5,0.1c0.2,0,0.3,0,0.5,0s0.3,0,0.5,0c0.2,0,0.3-0.1,0.5-0.1c-0.1,0.2-0.3,0.7-0.6,1.3c-0.3,0.7-0.7,1.5-1.1,2.5
				s-0.9,2.1-1.4,3.3c-0.5,1.2-1,2.4-1.5,3.7c-0.5,1.2-1,2.5-1.5,3.7s-0.9,2.3-1.3,3.3c-0.2,0-0.3-0.1-0.5-0.1c-0.2,0-0.3,0-0.5,0
				s-0.3,0-0.5,0c-0.2,0-0.3,0.1-0.5,0.1c0.5-1.1,1-2.1,1.6-3.1c0.5-1,1-2.1,1.5-3.1c-0.4-0.9-0.8-1.9-1.3-3.1s-0.9-2.3-1.4-3.4
				c-0.5-1.1-0.9-2.1-1.2-3s-0.7-1.6-0.9-2.1c0.3,0,0.6,0.1,0.9,0.1c0.3,0,0.6,0,0.9,0c0.3,0,0.6,0,0.9,0c0.3,0,0.6-0.1,0.9-0.1
				c0.5,1.3,0.9,2.5,1.4,3.8C602.2,222.3,602.7,223.6,603.2,224.9z"/>
		</g>
	</g>
	<g>
		<path d="M266.3,215.1c0-0.4,0-0.7-0.1-0.8c-0.2,0-0.5,0-0.9,0c-0.4,0-0.7,0-1.1,0.1c-0.4,0-0.8,0.1-1.2,0.1s-0.8,0.1-1.2,0.1
			c0-0.2,0.1-0.4,0.1-0.5c0-0.2,0-0.4,0-0.5s0-0.4,0-0.5c0-0.2-0.1-0.4-0.1-0.5c0.5,0,1,0,1.5,0c0.4,0,0.9,0,1.3,0c0.5,0,1,0,1.5,0
			c0.5,0,1.2,0,1.9,0c0.8,0,1.4,0,1.9,0s1,0,1.5,0c0.4,0,0.9,0,1.3,0c0.4,0,0.9,0,1.4,0c0,0.2-0.1,0.4-0.1,0.5c0,0.2,0,0.4,0,0.5
			s0,0.4,0,0.5c0,0.2,0.1,0.4,0.1,0.5c-0.3,0-0.7-0.1-1.1-0.1s-0.8-0.1-1.2-0.1c-0.4,0-0.8,0-1.1-0.1c-0.4,0-0.6,0-0.9,0
			c0,0.1,0,0.2,0,0.3c0,0.1,0,0.3,0,0.5v1.3v6c0,1.3,0,2.5,0,3.5c0,1,0.1,2,0.1,3c-0.3,0-0.6,0-0.9,0c-0.3,0-0.7,0-1.1,0
			c-0.4,0-0.8,0-1.1,0c-0.3,0-0.6,0-0.9,0c0.1-1,0.1-2,0.1-3c0-1,0-2.2,0-3.5v-6C266.3,215.9,266.3,215.5,266.3,215.1z"/>
		<path d="M275,214.8c0-1.3-0.1-2.6-0.1-4c0.2,0,0.5,0.1,0.8,0.1c0.3,0,0.7,0,1,0s0.7,0,1,0c0.3,0,0.6-0.1,0.8-0.1
			c-0.1,1.3-0.1,2.7-0.1,4c0,1.3,0,2.8,0,4.3l0,0c0.4-0.7,0.9-1.2,1.5-1.6s1.3-0.6,2.1-0.6c1.2,0,2.1,0.3,2.8,1c0.6,0.7,1,1.8,1,3.4
			c0,0.8,0,1.5,0,2.2c0,0.6,0,1.2,0,1.9c0,0.5,0,1.1,0,1.7c0,0.6,0.1,1.2,0.1,1.7c-0.2,0-0.5,0-0.8,0c-0.3,0-0.7,0-1,0
			c-0.4,0-0.7,0-1,0c-0.3,0-0.6,0-0.8,0c0.1-0.8,0.2-1.8,0.2-2.9c0-1.1,0-2.4,0-3.9c0-1-0.2-1.7-0.5-2.2c-0.3-0.5-0.8-0.7-1.5-0.7
			c-0.7,0-1.2,0.3-1.6,0.9s-0.5,1.5-0.5,2.6v1c0,0.2,0,0.5,0,1c0,0.4,0,0.9,0,1.4c0,0.5,0,1,0.1,1.5c0,0.5,0.1,1,0.1,1.4
			c-0.2,0-0.5,0-0.8,0c-0.3,0-0.7,0-1,0s-0.7,0-1,0c-0.3,0-0.6,0-0.8,0c0.1-1.3,0.1-2.6,0.1-3.9c0-1.3,0-2.8,0-4.3v-1.6
			C275.1,217.6,275,216.2,275,214.8z"/>
		<path d="M291.3,223.2c0,0.6,0.1,1.2,0.2,1.8c0.1,0.6,0.3,1,0.6,1.5c0.3,0.4,0.6,0.7,1,1c0.4,0.2,0.9,0.3,1.4,0.3
			c1.1,0,2.1-0.4,3-1.1l0.3,0.2l-0.5,1.3c-0.4,0.3-0.9,0.5-1.4,0.7s-1.3,0.3-2.2,0.3c-0.8,0-1.5-0.1-2.2-0.3
			c-0.7-0.2-1.3-0.6-1.9-1.1c-0.5-0.5-1-1.1-1.3-1.9c-0.3-0.8-0.5-1.7-0.5-2.7c0-1,0.1-1.9,0.4-2.7c0.3-0.8,0.7-1.4,1.2-1.9
			c0.5-0.5,1.1-0.9,1.8-1.2c0.7-0.3,1.4-0.4,2.2-0.4c1.6,0,2.8,0.5,3.6,1.4c0.8,0.9,1.3,2.2,1.3,3.9v0.5c0,0.1,0,0.2,0,0.3H291.3z
			 M295,222.1c0-1.2-0.2-2.2-0.4-2.9c-0.3-0.7-0.7-1.1-1.3-1.1c-0.4,0-0.6,0.1-0.9,0.4c-0.2,0.2-0.4,0.5-0.6,0.9
			c-0.1,0.4-0.3,0.8-0.3,1.3c-0.1,0.5-0.1,0.9-0.1,1.4H295z"/>
	</g>
</g>
</svg>
